<?xml version="1.0" encoding="utf-8"?>
<!-- Generator: Adobe Illustrator 21.0.0, SVG Export Plug-In . SVG Version: 6.00 Build 0)  -->
<svg version="1.1" id="Layer_1" xmlns="http://www.w3.org/2000/svg" xmlns:xlink="http://www.w3.org/1999/xlink" x="0px" y="0px"
	 viewBox="0 0 198.5 268.3" style="enable-background:new 0 0 198.5 268.3;" xml:space="preserve">
<style type="text/css">
	.st0{fill:#F4C500;stroke:#FFCE00;stroke-miterlimit:10;}
	.st1{fill:none;stroke:#000000;stroke-miterlimit:10;}
	.st2{opacity:0.5;}
	.st3{fill:#896F00;}
	.st4{fill:#FFCE00;stroke:#FFCE00;stroke-miterlimit:10;}
	.st5{fill:#FFFFFF;stroke:#FFFFFF;stroke-miterlimit:10;}
	.st6{opacity:0.5;fill:#665200;enable-background:new    ;}
	.st7{opacity:0.5;fill:#896F00;stroke:#896F00;stroke-miterlimit:10;enable-background:new    ;}
	.st8{opacity:0.8;fill:#E5DEC6;enable-background:new    ;}
	.st9{fill:#FFF8DC;}
	.st10{opacity:0.4;fill:#AA6500;enable-background:new    ;}
	.st11{fill:#FFFCBD;stroke:#FFFCBD;stroke-miterlimit:10;}
	.st12{opacity:0.5;fill:#FFFFFF;stroke:#000000;stroke-width:3;stroke-miterlimit:10;enable-background:new    ;}
	.st13{opacity:0.5;fill:#FFFFFF;stroke:#000000;stroke-width:2;stroke-miterlimit:10;enable-background:new    ;}
	.st14{stroke:#000000;stroke-miterlimit:10;}
	.st15{fill:#FFFFFF;stroke:#000000;stroke-miterlimit:10;}
	.st16{fill:none;stroke:#000000;stroke-width:2;stroke-miterlimit:10;}
	.st17{fill:none;stroke:#000000;stroke-width:3;stroke-miterlimit:10;}
	.st18{fill:#AA6500;stroke:#AA6500;stroke-miterlimit:10;}
	.st19{opacity:0.7;fill:#512E00;enable-background:new    ;}
	.st20{fill:#EDD600;}
	.st21{fill:#FFF9C5;}
	.st22{fill:#4200A0;}
	.st23{fill:#FFFFFF;}
</style>
<title>buff-search</title>
<g id="body">
	<path class="st0" d="M173.5,185.8c0,1.4,0,2.8-0.1,4.2c-17.4-6.2-35.8-9.3-54.3-9.3c-56,0-89.5,29.2-101.4,49.5
		c-0.1,0.2-0.2,0.4-0.3,0.6c-4-6.9-6.2-15.2-6.2-25c0-28.1,13.4-64,35.3-84.6c-0.6,8,7.1,20.7,16.3,30.7c8.2,8.8,20,13.4,31.9,12.4
		l65.7-5.3c1.8,0,3.6-1.3,5.2-3.3C170.7,164.9,173.3,175.3,173.5,185.8z"/>
	<path class="st1" d="M68.6,219.7C68.6,219.6,68.6,219.6,68.6,219.7"/>
	<g class="st2">
		<path class="st3" d="M19.6,202.4c-0.1,7,1,13.9,3.1,20.5c-1.8,2.3-3.5,4.8-5,7.3c-0.1,0.2-0.2,0.4-0.3,0.6c-4-6.9-6.2-15.2-6.2-25
			c0-25.3,10.9-56.9,29-78C27.3,148.5,19.6,178.4,19.6,202.4z"/>
		<path class="st3" d="M19.6,202.4c-0.1,7,1,13.9,3.2,20.5l0,0l0,0c-1,1.3-1.9,2.5-2.8,3.8c-0.4,0.7-0.9,1.3-1.3,2
			c-0.4,0.7-0.8,1.4-1.2,2l-0.1,0.1l-0.1-0.1c-4.7-8-6.6-17.5-6.3-26.7c0.2-9.3,1.5-18.5,3.9-27.5c0.6-2.2,1.3-4.5,1.9-6.7l1.1-3.3
			l0.6-1.6l0.6-1.6l1.2-3.2c0.4-1.1,0.9-2.1,1.4-3.2c0.9-2.1,1.9-4.2,2.9-6.3c4.2-8.3,9.3-16,15.3-23.1l0.7,0.5
			c-3.5,5.5-6.5,11.3-9,17.3c-5.1,12.1-8.6,24.7-10.5,37.6C20.1,189.3,19.6,195.8,19.6,202.4z M19.6,202.4c0-6.5,0.5-13.1,1.5-19.5
			c0.9-6.5,2.3-12.9,3.9-19.2c1.7-6.3,3.7-12.5,6.2-18.6c2.4-6.1,5.4-12,8.8-17.6l0.7,0.5c-5.9,7.1-10.9,14.8-15,23.1
			c-4.1,8.2-7.4,16.9-9.8,25.8l-0.9,3.4c-0.3,1.1-0.5,2.2-0.8,3.4c-0.5,2.2-0.9,4.5-1.3,6.8c-0.7,4.6-1.2,9.1-1.3,13.8
			c-0.5,9.3,1.5,18.5,5.9,26.6h-0.2c0.8-1.4,1.6-2.7,2.5-4c0.9-1.3,1.8-2.6,2.8-3.8v0.1C20.5,216.3,19.5,209.3,19.6,202.4z"/>
	</g>
	<path class="st4" d="M59,149.2c-3.1-4.3-5.7-8.8-8-13.6c3.3,5.9,7.3,11.3,11.9,16.2c3.6,3.9,7.9,7,12.8,9.1
		C69.3,159.5,63.4,155.5,59,149.2z"/>
	<path class="st4" d="M173.5,185.8c0,1.4,0,2.8-0.1,4.2c-9.7-3.5-19.7-6-29.9-7.5c0-7.5-1.1-14.9-3.3-22l20.4-1.7
		c1.8,0,3.6-1.3,5.2-3.3C170.7,164.9,173.3,175.2,173.5,185.8z"/>
	<path d="M34.4,210.4c-3.9,5-7.3,10.4-9.9,16.1c-0.1,0.2-0.2,0.4-0.2,0.6c-0.6-1.3-1.1-2.7-1.6-4.2
		C26.2,218.3,30.1,214.1,34.4,210.4z"/>
	<path d="M46.5,121.2c0.3,4.2,2,9.3,4.4,14.5C48,130.2,46.2,125.1,46.5,121.2z"/>
	<path d="M140.1,160.6l-45.4,3.7c-6.6,0.5-13.2-0.6-19.2-3.3c2.5,0.6,5.1,0.8,7.7,0.5l50.2-5.3c1.4,0,2.7-1.3,4-3.2
		C138.5,155.4,139.4,158,140.1,160.6z"/>
	<path d="M143.4,182.5v0.2c0,1.4,0,2.8-0.1,4.2c-5.4-2.5-11-4.5-16.7-6C132.3,181.1,137.9,181.7,143.4,182.5z"/>
	<path class="st1" d="M68.6,219.7C68.6,219.6,68.6,219.6,68.6,219.7"/>
	<path class="st5" d="M173.3,190c0,0.4-0.1,0.8-0.1,1.1c-2.8-1.4-5.9-2.1-9-2.1c-9.6,0-18.4,6-22.6,15.8c-0.8,1.7-1.3,3.7-1.3,5.6
		v29.1c0,2.6,0.3,5.2,0.9,7.7c-1.6,1.1-3.2,2.2-4.9,3.2v-31.6c-0.1-14.3-11.7-25.9-26-26c-10.9-0.1-20.9,6-25.7,15.7
		c-0.9,1.7-1.4,3.7-1.4,5.6v10.1l-14.5-4.5l0,0h-0.1l0,0C53.3,220,41.1,233,41.1,248.9c0,1,0,1.9,0.1,2.9
		C31,246.9,22.7,240,17.4,230.8c0.1-0.2,0.2-0.4,0.3-0.6c11.8-20.3,45.4-49.5,101.4-49.5C137.6,180.7,155.9,183.9,173.3,190z"/>
	<path class="st4" d="M90.1,261.7c-17.9-0.5-35.1-3.5-48.9-10c-0.1-0.9-0.1-1.9-0.1-2.9c0-15.9,12.2-28.9,27.5-29.2c0,0,0.1,0,0.1,0
		l0,0l14.5,4.5v19.1c0,3.3,0.6,6.7,1.7,9.8C86.1,256.2,87.8,259.2,90.1,261.7z"/>
	<path class="st6" d="M170.5,156c-2.4,6.3-5.6,11.6-9,11.6L95.8,174c-12,1.1-23.8-4.2-31.9-14.7c-10.3-13.3-18.7-30.6-15.8-39.6
		c1.9,9.1,8.4,20.8,15.8,30.3c8.1,10.5,20,15.9,31.9,14.7l65.7-6.4c3.4,0,6.6-5.3,9-11.6c1.8-4.8,2.9-9.8,3.2-14.9
		C174.5,140,173.4,148.3,170.5,156z"/>
	<path class="st7" d="M90.1,261.2c-17.9-0.5-35.1-3.5-48.9-10c-0.1-0.9-0.1-1.9-0.1-2.9c0-1.4,0.1-2.8,0.3-4.2
		c12.6,5.5,27.8,8.3,43.8,8.9C86.3,256.1,88,258.9,90.1,261.2z"/>
	<path class="st8" d="M40.1,248.9c0,1,0,1.9,0.1,2.9C30,246.8,21.7,240,16.4,230.8c0.1-0.2,0.2-0.4,0.3-0.6c0.8-1.3,1.6-2.7,2.5-4
		c4.9,8,12.2,14,21.1,18.6C40.2,246.2,40.1,247.5,40.1,248.9z"/>
	<path class="st9" d="M-37.4,107.4c0.2-0.4,0.4-0.8,0.6-1.2c0,0.3,0,0.5,0,0.8v10.1l-2-0.6V113C-38.8,111.1-38.3,109.1-37.4,107.4z"
		/>
</g>
<g id="head">
	<path class="st4" d="M172.6,127.6c0.9,7.3-0.1,14.8-3.1,21.5c-2.4,5.3-5.6,9.8-9,9.8l-65.7,5.3c-12,1-23.8-3.6-31.9-12.4
		c-10.3-11.2-18.8-25.8-15.8-33.4L56,71.6c0-2.2,0.6-4.3,1.8-6.1c0.6-21.7,24.3-39.1,53.4-39.1c29.4,0,53.2,17.7,53.4,39.7
		c1,1.7,1.5,3.6,1.4,5.6L172.6,127.6z"/>
	<path class="st10" d="M168.6,149.4L168.6,149.4c-2.4,5.4-5.6,9.9-9,9.9l-65.7,5.3c-12,1-23.8-3.6-31.9-12.4
		c-10.3-11.2-18.8-25.8-15.7-33.4l8.9-46.9c0-2.2,0.6-4.3,1.8-6.1c0.3-7.8,3.3-15.2,8.5-20.9c-1.9,4-3,8.3-3.1,12.7
		c-1.2,1.8-1.8,4-1.8,6.1l-8.9,46.9c-3,7.6,5.4,22.2,15.7,33.4c8.2,8.8,20,13.4,32,12.4l65.7-5.3
		C166.4,150.8,167.7,150.3,168.6,149.4z"/>
</g>
<g id="face">
	<path class="st11" d="M112.1,35.3c0.2,8.6-4.8,8.1-8.9,8.1s-11.4,0.5-11.4-8.1s4.9-21.5,11.4-23.1
		C106.7,11.3,111.8,26.3,112.1,35.3z"/>
	<ellipse class="st12" cx="104.4" cy="93.9" rx="21.2" ry="19.8"/>
	<ellipse class="st13" cx="143.4" cy="90.9" rx="17.2" ry="19.8"/>
	<ellipse class="st14" cx="103.9" cy="93.9" rx="5.9" ry="13.6"/>
	<ellipse class="st14" cx="141.8" cy="92.1" rx="5.9" ry="13.6"/>
	<circle class="st15" cx="106.3" cy="100.5" r="2.2"/>
	<circle class="st15" cx="141.3" cy="101.5" r="2.2"/>
	<path d="M93,64.8C93.3,77,103,86,115,86.3c3.9,0.1,3.9-5.9,0-6c-8.7-0.2-15.8-6.7-16-15.5C98.9,61,92.9,61,93,64.8z"/>
	<path d="M138.4,84.3c0.2-6.6,3.8-14.2,11.2-14.5c3.9-0.1,3.9-6.1,0-6c-10.8,0.4-17,10.5-17.2,20.5
		C132.3,88.2,138.3,88.2,138.4,84.3z"/>
	<ellipse class="st16" cx="104.4" cy="93.9" rx="21.2" ry="19.8"/>
	<ellipse class="st17" cx="143.4" cy="90.9" rx="17.2" ry="19.8"/>
	<path d="M84,87l-13.2-8c-1.7-1-3.2,1.6-1.5,2.6l13.2,8C84.1,90.6,85.6,88,84,87z"/>
	<path d="M161.3,84.3l5.1-4.8c1.4-1.3-0.7-3.4-2.1-2.1l-5.1,4.8C157.8,83.6,159.9,85.7,161.3,84.3z"/>
	<path class="st18" d="M169.5,149.1c-2.4,5.3-5.6,9.8-9,9.8l-65.7,5.3c-8.7,0.7-17.4-1.5-24.8-6.3c6.3-14.4,32.7-31.7,59-36.8
		c19.6-3.8,34.5,0.1,43.7,7.3C173.5,135.5,172.4,142.6,169.5,149.1z"/>
	<path class="st19" d="M168.5,150.1c-2.4,5.3-5.6,9.8-9,9.8l-65.7,5.3c-8.7,0.7-17.4-1.5-24.8-6.3c0.3-0.7,0.7-1.5,1.1-2.2
		c6.6,3.5,14.2,5.1,21.7,4.5l65.7-5.3c3.4,0,6.6-4.5,9-9.8c2.5-5.7,3.7-11.8,3.4-18c0.6,0.4,1.2,0.9,1.8,1.3
		C172.5,136.5,171.4,143.6,168.5,150.1z"/>
	<path class="st18" d="M78.7,40.3c0,6.1-33.6,26.3-47.8,26.3c-2.4,0.7-4.8,1-7.2,1C10.6,67.7,0,58.4,0,47s10.6-20.7,23.6-20.7
		c3.3,0,6.6,0.6,9.7,1.8c1.3,0.8,2.6,1.4,4,2c0.5,0.3,1.1,0.7,1.6,1.1l0.7-0.2c8.1,3,20.3,5.6,30.1,5.6c2.4,0,4.8-0.2,7.1-0.6
		C77.9,37.1,78.7,38.7,78.7,40.3z"/>
	<path class="st19" d="M32.4,62.6c11.7,0,35.9-12.5,45.8-20.8c-4.3,7.4-34.2,24.8-47.3,24.8c-2.4,0.7-4.8,1-7.2,1
		C10.6,67.6,0,58.4,0,47c0-0.7,0-1.3,0.1-2c1.2,10.4,11.8,18.6,24.7,18.6C27.4,63.6,29.9,63.3,32.4,62.6z"/>
	<path class="st18" d="M183.5,14.8c0,2.5-0.7,4.9-2.1,7l0,0c-1.2,3-2.9,5.8-5,8.3c-4.3,5.2-13,11.4-19.6,13.3
		c-3-3.2-6.4-5.9-10.1-8.1c-1.6-1-3.3-1.9-5.1-2.7c1.5-0.9,2.8-2.1,3.9-3.4c3.2-4.2,5.2-9.2,5.9-14.4c0.1-0.9,0.2-1.7,0.3-2.6
		c1.4-6.6,7.9-11.6,15.7-11.6C176.3,0.5,183.5,6.9,183.5,14.8z"/>
	<path class="st19" d="M183.5,14.8c0,2.5-0.7,4.9-2.1,7l0,0c-1.2,3-2.9,5.8-5,8.3c-4.3,5.2-13,11.4-19.6,13.3
		c-0.2-0.2-0.4-0.5-0.7-0.7c5.8-2.8,11-6.8,15.2-11.6c2.1-2.5,3.8-5.3,5-8.3l0,0c1.3-2.1,2.1-4.5,2.1-7c0-7.9-7.1-14.3-16-14.3h-0.9
		c1.9-0.7,3.9-1,5.9-1C176.3,0.5,183.5,6.9,183.5,14.8z"/>
	<path class="st11" d="M141.7,31c1,8.6-3.2,8.5-6.5,8.8c-3.3,0.3-9.3,1.4-10.1-7.2s1.7-24.6,7.2-23.9C136.8,9.2,140.7,22.1,141.7,31
		z"/>
	<path class="st20" d="M107.1,41.4c-1.3,3.3-4.2,3-6.7,3c-3.4,0-9.6,0.5-9.6-8.1s4.1-21.5,9.6-23.2c0.4-0.1,0.8,0,1.1,0.3
		c-3.4,4.8-5.6,13.5-5.6,19.9c0,8.6,6.2,8.1,9.6,8.1C105.9,41.4,106.5,41.4,107.1,41.4z"/>
	<path class="st20" d="M140.2,38.1c-1.2,2.5-3.8,2.5-6,2.7c-3.3,0.3-9.3,1.4-10.1-7.2c-0.7-7.7,1.2-21.3,5.6-23.6
		c-3,4.6-4.2,15.2-3.6,21.6c0.8,8.6,6.8,7.5,10.1,7.2C137.5,38.8,138.9,38.5,140.2,38.1z"/>
</g>
<g id="book">
	<polygon class="st21" points="151.2,134.8 80.2,118.7 81.8,111.6 154.1,132.4 	"/>
	<polygon class="st21" points="154.9,133.2 190.3,103.9 195,108.7 155.4,136.1 	"/>
	<polygon class="st22" points="152.2,212.9 82.3,192 77.8,116.6 150.4,134.1 	"/>
	<polygon class="st22" points="163,210.9 198.5,180.7 196.6,107.5 160.2,131.6 	"/>
	<polygon points="163,210.9 152.2,212.9 148.6,133.6 160.2,131.6 	"/>
</g>
<g id="text">
	<path class="st5" d="M93.9,148.4l-0.3,1.8c-0.1,0.7-0.9,1.2-1.6,1.1c0,0,0,0,0,0l-0.6-0.1c-0.7-0.1-1.2-0.8-1.1-1.6c0,0,0,0,0,0
		l1.4-7.3l2.9,0.6l-0.6,0.8l-1.6-0.3l-1.1,6.1c-0.1,0.4,0.3,0.9,0.7,0.9c0.4,0.1,0.8-0.2,0.9-0.6l0.3-1.4L93.9,148.4z"/>
	<path class="st5" d="M99.3,143.7l-1.1-0.2c-0.9-0.2-1.8,0.4-1.9,1.3l-1,5.4c-0.2,0.9,0.4,1.8,1.3,1.9l1.1,0.2
		c0.9,0.2,1.8-0.4,1.9-1.3c0,0,0,0,0,0l0.1-0.8l-1.1-0.2l-0.1,0.7c-0.1,0.6-0.7,1-1.3,0.8c-0.6-0.1-0.9-0.7-0.8-1.2l0.4-2.4l3.3,0.6
		l0.5-2.9C100.8,144.7,100.2,143.9,99.3,143.7C99.3,143.7,99.3,143.7,99.3,143.7z M97,147.2l0.4-2.1c0.1-0.6,0.7-1,1.3-0.8
		c0.3,0.1,0.5,0.2,0.7,0.4c0.2,0.2,0.2,0.5,0.2,0.8l-0.4,2.1L97,147.2z"/>
	<path class="st5" d="M106,145l-1.1-0.2c-0.9-0.2-1.8,0.4-1.9,1.3l-1,5.4c-0.2,0.9,0.5,1.8,1.4,1.9l1.1,0.2c0.9,0.2,1.8-0.4,1.9-1.3
		c0,0,0,0,0,0l0.1-0.8l-1.1-0.2l-0.1,0.7c-0.1,0.6-0.7,1-1.3,0.8c-0.6-0.1-0.9-0.7-0.8-1.2l0.4-2.4l3.3,0.6l0.5-2.9
		C107.5,146,106.9,145.1,106,145C106,145,106,145,106,145z M103.6,148.5l0.4-2.1c0.1-0.6,0.7-1,1.3-0.8c0.3,0.1,0.5,0.2,0.7,0.4
		c0.2,0.2,0.2,0.5,0.2,0.8l-0.4,2.1L103.6,148.5z"/>
	<polygon class="st5" points="121.7,155.8 121.6,156.6 118.3,155.9 119.9,147.6 120.8,147.8 119.4,155.4 	"/>
	<path class="st5" d="M127.3,149l-1.1-0.2c-0.9-0.2-1.7,0.4-1.9,1.3c0,0,0,0,0,0l-1,5.5c-0.2,0.9,0.4,1.7,1.3,1.9c0,0,0,0,0,0
		l1.1,0.2c0.9,0.2,1.7-0.4,1.9-1.3c0,0,0,0,0,0l1-5.5C128.8,150,128.2,149.2,127.3,149C127.3,149,127.3,149,127.3,149z M126.7,156.4
		c-0.1,0.4-0.4,0.6-0.8,0.6l-1.2-0.2c-0.4-0.1-0.6-0.4-0.6-0.8l1.1-5.8c0.1-0.4,0.4-0.6,0.8-0.6l1.2,0.2c0.4,0.1,0.6,0.4,0.6,0.8
		L126.7,156.4z"/>
	<path class="st23" d="M126.2,147.8l2-1.3c0,0,0.4,1,0.6,0.9c-0.7,0.4-1.4,0.7-2.2,0.8C126.4,148.1,126.2,147.8,126.2,147.8z"/>
	<path class="st5" d="M141,154.1l0.2-1.1c0.1-0.3-0.1-0.6-0.4-0.6l-1.1-0.2c-0.3-0.1-0.6,0.1-0.7,0.4c0,0,0,0,0,0l-1.1,5.9
		c-0.1,0.3,0.1,0.6,0.4,0.6l1.1,0.2c0.3,0.1,0.6-0.1,0.7-0.4c0,0,0,0,0,0l0.4-2.4l-1.3-0.2l0.1-0.7l2.4,0.4l-0.6,3
		c-0.2,0.8-0.9,1.3-1.8,1.2l-1.3-0.2c-0.8-0.1-1.3-0.9-1.2-1.7c0,0,0,0,0,0l1.1-5.8c0.2-0.8,0.9-1.3,1.7-1.2c0,0,0,0,0,0l1.3,0.2
		c0.8,0.1,1.3,0.9,1.2,1.7l-0.2,1L141,154.1z"/>
	<path class="st5" d="M135.6,152l-1.3,7l-1.1-0.2l1.3-6.9c0-0.2,0-0.4-0.1-0.6c-0.1-0.2-0.3-0.3-0.5-0.3c-0.8-0.2-1.5,0.3-1.7,1.1
		c0,0,0,0,0,0l-1.2,6.3l-1.1-0.2l1.6-8.4l0.5,0.1c0,0-0.1,0.7,0.1,0.8c0.6-0.4,1.3-0.5,2-0.4l0.5,0.1
		C135.2,150.5,135.7,151.2,135.6,152z"/>
	<path class="st5" d="M114.1,148.1l-1.3,6.9l-1.1-0.2l1.3-6.9c0-0.2,0-0.5-0.1-0.7c-0.1-0.2-0.3-0.3-0.6-0.4
		c-0.7-0.1-1.5,0.3-1.6,1.1l-1.2,6.4l-1.1-0.2l1.6-8.4l0.5,0.1c0,0.2,0,0.4,0.1,0.7c0.6-0.4,1.4-0.6,2.1-0.5h0.2
		C113.6,146.2,114.3,147.1,114.1,148.1C114.1,148.1,114.1,148.1,114.1,148.1z"/>
</g>
<g id="legs">
	<path class="st18" d="M172.7,264.2h-17.2c-2.4,0-5.2-1.8-7.7-4.4c-4.9-5.2-7.4-12.6-7.4-20.2v-29.1c0-1.9,0.4-3.9,1.2-5.6
		c4.2-9.8,13.1-15.8,22.6-15.8l0,0c12.6,0,22.9,11.7,22.9,26v32.7C187.1,256.8,180.6,264.2,172.7,264.2z"/>
	<path class="st18" d="M120,267.8h-19.6c-2.8,0-5.9-1.8-8.7-4.4c-5.5-5.3-8.5-12.6-8.5-20.2v-29.1c0-2,0.5-3.9,1.4-5.6
		c4.9-9.7,14.9-15.8,25.8-15.8l0,0c14.3,0.1,25.9,11.7,26,26v32.7C136.4,260.4,129.1,267.8,120,267.8z"/>
	<path class="st19" d="M135.8,255.8c-2,7.1-8.4,12-15.8,12.1h-19.6c-2.8,0-5.9-1.8-8.7-4.4c-5.5-5.3-8.6-12.6-8.5-20.2v-29.1
		c0-2,0.5-3.9,1.4-5.6c0.9-1.8,2-3.5,3.2-5.1c-0.4,1.2-0.6,2.4-0.6,3.7v29.1c-0.1,7.6,3,14.9,8.5,20.2c2.8,2.7,6,4.4,8.7,4.4H124
		C128.5,260.8,132.7,259,135.8,255.8z"/>
	<path class="st19" d="M186.4,252.6c-1.8,6.7-7.3,11.5-13.8,11.5h-17.2c-2.4,0-5.2-1.8-7.7-4.4c-4.9-5.2-7.4-12.6-7.4-20.2v-29.2
		c0-1.9,0.4-3.9,1.2-5.6c0.7-1.6,1.5-3.1,2.4-4.5c-0.5,1.3-0.7,2.7-0.7,4.1v29.1c0,7.6,2.6,15,7.4,20.2c2.5,2.7,5.2,4.4,7.7,4.4
		h17.2C179.9,258.1,183.9,256,186.4,252.6z"/>
</g>
</svg>
