<svg xmlns="http://www.w3.org/2000/svg" viewBox="0 0 283.69 193.37"><defs><style>.cls-1{fill:#ffce00;}.cls-2,.cls-5{fill:#fffcbd;}.cls-2{stroke:#000;stroke-miterlimit:10;}.cls-3,.cls-4{fill:#aa6500;}.cls-14,.cls-3{opacity:0.2;}.cls-6{fill:#724100;}.cls-7{fill:#edd600;}.cls-11,.cls-8{fill:#0092ff;}.cls-14,.cls-9{fill:#02619b;}.cls-10{fill:#68c4fc;}.cls-11,.cls-15{opacity:0.5;}.cls-12{fill:#caedff;}.cls-13{fill:#def4fc;}.cls-15{fill:#005884;}</style></defs><title>filter-1st-char</title><g id="head"><path class="cls-1" d="M196.13,115.16a58.51,58.51,0,0,0-28.47-7.24c-29.55,0-64.52,32.84-66.49,58.87-.77,10.22,7,18.48,18.6,24.47-59.9,11-88-22.13-71.83-81,15.87-1.1,31.76-16.78,39.23-27.11a46.74,46.74,0,0,0,3-4.7,0,0,0,0,0,0,0,9.59,9.59,0,0,0,.36-2.59,9.14,9.14,0,0,0-.2-1.9,10,10,0,0,0-9.94-7.88,10.64,10.64,0,0,0-2.54.31h0A19.51,19.51,0,0,1,75,67.6a45.45,45.45,0,0,1-10.13,2.09,79.87,79.87,0,0,1,9.88-13c12.39-13,28.73-19.91,51.62-20.15a66.46,66.46,0,0,1,14.07,1.3,55.89,55.89,0,0,1,11.72,3.74c.47.2.94.41,1.41.64a56.62,56.62,0,0,1,14.86,10.34c13.72,13.13,22.76,33.81,27.29,60.12Q195.92,114,196.13,115.16Z"/><path class="cls-2" d="M130.34-62.64"/><path class="cls-3" d="M119.77,191.26c-59.9,11-88-22.13-71.83-81,.35,0,.71-.06,1.06-.1C38.25,160,61.52,189.11,110.17,185A51.38,51.38,0,0,0,119.77,191.26Z"/></g><g id="face"><path class="cls-4" d="M90.56,75.86a9.59,9.59,0,0,1-.36,2.59,0,0,0,0,1,0,0,46.74,46.74,0,0,1-3,4.7c-7.47,10.33-23.36,26-39.23,27.11a22.74,22.74,0,0,1-2.61.06c-20.13-.72-36.21-8-39.27-13.35A23.69,23.69,0,0,1,0,81C0,68.39,9.5,58.16,21.21,58.16a20.12,20.12,0,0,1,12.64,4.51c.24,1.37,1.55,2.65,3.67,3.74C41.75,68.6,49.2,70,57.68,70a71.26,71.26,0,0,0,7.18-.36A45.45,45.45,0,0,0,75,67.6a19.51,19.51,0,0,0,2.88-1.21h0a10.64,10.64,0,0,1,2.54-.31A10,10,0,0,1,90.36,74,9.14,9.14,0,0,1,90.56,75.86Z"/><path class="cls-4" d="M202.1,20.52a28.56,28.56,0,0,1-3.78,14.86,44.16,44.16,0,0,1-4.81,4.76,39.42,39.42,0,0,1-7.83,5.22c-7,3.48-12.6,6-17.26,7.25a56.62,56.62,0,0,0-14.86-10.34c8.06-3.94,18-15.16,24.14-27.75h0l.72-.48c.13-.72.3-1.42.49-2.1l.25-.57a36.54,36.54,0,0,0,1.45-4C182.84,2.87,186.19,0,190,0c3.5,0,6.65,2.5,8.86,6.49A29.32,29.32,0,0,1,202.1,20.52Z"/><path class="cls-5" d="M105.93,43.05C107.72,50.14,95,53.91,90.2,52.61c-3-.82-7-4.79-7-16s4.22-24.66,9.17-24.66S103.19,32.16,105.93,43.05Z"/><path class="cls-5" d="M140.43,37.89c1.79,7.09-9.45,5-14.23,3.72-3-.82-7-4.79-7-16s4-20.34,9-20.34S137.69,27,140.43,37.89Z"/><path d="M93.18,76.23C91.6,92,100.73,121.58,122,117c8.27-1.76,13.46-9.33,15.78-17,3.21-10.61,1.52-22.15-3-32.09-2.37-5.27-10.13-.7-7.77,4.54a37,37,0,0,1,2.42,23.79c-1.25,4.93-4.16,11.16-9.81,12s-10.27-4.24-12.87-8.58c-4.24-7.08-5.42-15.42-4.6-23.53.58-5.76-8.43-5.72-9,0Z"/><path d="M142.22,67c-.51,9.14,1.28,19.11,6.43,26.85,3.47,5.21,9.19,10.15,15.92,8.79,16.73-3.4,14.2-29.86,9.76-41.18-2.09-5.33-10.8-3-8.68,2.39a40,40,0,0,1,2.87,18.58c-.33,3.25-1.47,10.33-5.44,11.33S156,89,154.68,86.34c-3-6-3.82-12.73-3.45-19.3.32-5.79-8.68-5.77-9,0Z"/><path class="cls-4" d="M190,166.52a24.67,24.67,0,0,0,3-5.37c3.35-8.24,2-16.58-3.1-18.64s-11.86,3-15.21,11.21c0,0,0,.09-.05.13a33.94,33.94,0,0,0-6.25-.57c-11.82,0-21.4,5.88-21.4,13.14,0,6.38,7.41,11.7,17.25,12.89-8.84,2.94-19.7,5.93-32.93,9.37q-6,1.55-11.55,2.58c-11.57-6-19.37-14.25-18.6-24.47,2-26,36.94-58.87,66.49-58.87a58.51,58.51,0,0,1,28.47,7.24C200.73,142.39,201.29,156.5,190,166.52Z"/><path class="cls-6" d="M164.25,179.31c-8.84,2.94-19.7,5.93-32.93,9.37q-6,1.55-11.55,2.58c-11.57-6-19.37-14.25-18.6-24.47A39.59,39.59,0,0,1,103.69,156a34.31,34.31,0,0,0-.52,3.84c-.77,10.22,7,18.48,18.6,24.47q5.6-1,11.55-2.58c7.64-2,14.49-3.82,20.61-5.59A27.9,27.9,0,0,0,164.25,179.31Z"/><path class="cls-6" d="M90.53,76.66a10.3,10.3,0,0,1-.33,1.79,0,0,0,0,1,0,0,46.74,46.74,0,0,1-3,4.7c-7.47,10.33-23.36,26-39.23,27.11a22.74,22.74,0,0,1-2.61.06c-20.13-.72-36.21-8-39.27-13.35A23.69,23.69,0,0,1,0,81,23.94,23.94,0,0,1,4.25,67.29,24.15,24.15,0,0,0,3,75,23.69,23.69,0,0,0,9.06,91c3.06,5.33,19.14,12.63,39.27,13.35a22.74,22.74,0,0,0,2.61-.06c15.87-1.1,31.76-16.78,39.23-27.11Z"/><path class="cls-6" d="M202.1,20.52a28.56,28.56,0,0,1-3.78,14.86,44.16,44.16,0,0,1-4.81,4.76,39.42,39.42,0,0,1-7.83,5.22c-7,3.48-12.6,6-17.26,7.25-.25-.24-.5-.48-.75-.69a119.48,119.48,0,0,0,15-6.56,39.42,39.42,0,0,0,7.83-5.22,44.16,44.16,0,0,0,4.81-4.76,28.56,28.56,0,0,0,3.78-14.86,29.32,29.32,0,0,0-3.29-14c-1.89-3.42-4.47-5.74-7.38-6.33A7.07,7.07,0,0,1,190,0c3.5,0,6.65,2.5,8.86,6.49A29.32,29.32,0,0,1,202.1,20.52Z"/><path class="cls-7" d="M103.92,44.63c-.07,5.31-9.86,8.06-13.69,7-2.61-.71-6-4.12-6-13.79,0-7.78,2.34-16.76,5.48-20a44.1,44.1,0,0,0-2.89,15.68c0,9.67,3.44,13.09,6,13.79S100.73,47,103.92,44.63Z"/><path class="cls-7" d="M137.31,39.11c-1.34,2.85-8.22,1.58-11.45.72-2.45-.64-5.68-3.76-5.68-12.58,0-8.23,1-15,4.59-15.87-2.39,2.61-2.17,8-2.17,14.3,0,8.82,3.23,11.94,5.68,12.58C130.56,38.86,134.63,39.66,137.31,39.11Z"/></g><g id="pacifier"><path class="cls-8" d="M200.08,156.91c-3.09,7.62-8.78,13-14.42,14.24-3.59,7.44-13.88,12.81-26,12.81-15.13,0-27.39-8.34-27.39-18.64s12.26-18.63,27.39-18.63a37.58,37.58,0,0,1,13.49,2.42c.28-.91.6-1.83,1-2.74,4.28-10.54,13.56-16.72,20.73-13.81S204.36,146.37,200.08,156.91Z"/><path class="cls-9" d="M201.21,153.58a29.05,29.05,0,0,1-1.13,3.33c-3.09,7.62-8.78,13-14.42,14.24-3.59,7.44-13.88,12.81-26,12.81-15.13,0-27.39-8.34-27.39-18.64a13.3,13.3,0,0,1,1.28-5.65,12.36,12.36,0,0,0-.28,2.65c0,10.3,12.26,18.64,27.39,18.64,12.13,0,22.42-5.37,26-12.81,5.64-1.28,11.33-6.62,14.42-14.24Z"/><path class="cls-10" d="M193,161.15a24.67,24.67,0,0,1-3,5.37l-.24.21a.49.49,0,0,1,0,.12c-.36,7-9.79,12.71-21.39,12.71a35,35,0,0,1-4.15-.25c-9.84-1.19-17.25-6.51-17.25-12.89,0-7.26,9.58-13.14,21.4-13.14a33.94,33.94,0,0,1,6.25.57s0-.09.05-.13c3.35-8.24,10.16-13.26,15.21-11.21S196.36,152.91,193,161.15Z"/><path class="cls-11" d="M193,161.15a24.67,24.67,0,0,1-3,5.37l-.24.21a.49.49,0,0,1,0,.12c-.36,7-9.79,12.71-21.39,12.71a35,35,0,0,1-4.15-.25c-8.35-1-14.94-5-16.75-10.07,2.63,4.1,8.54,7.2,15.75,8.07a35,35,0,0,0,4.15.25c11.6,0,21-5.66,21.39-12.71a.49.49,0,0,0,0-.12l.24-.21a24.67,24.67,0,0,0,3-5.37c2.1-5.15,2.34-10.35,1-14C195.37,148.73,195.52,155,193,161.15Z"/></g><g id="paciefier_top" data-name="paciefier top"><path class="cls-12" d="M281.14,142c-4.68-14.06-23.9-17-46.91-9.31S196.36,158,201,172.08s33.37,13.24,56.38,5.57S285.83,156.11,281.14,142Zm-45.06,24.56c-15.79,5.26-30.31,4.35-32.44-2s8.95-15.82,24.74-21.08,30.31-4.35,32.43,2S251.86,161.35,236.08,166.61Z"/><path class="cls-13" d="M209.94,163.33c0,12.21-11.69,25.58-24.74,25.58s-23.63-9.9-23.63-22.12,10.58-22.12,23.63-22.12S209.94,151.11,209.94,163.33Z"/><path class="cls-14" d="M209.1,169.16c-2.9,10.28-12.91,19.75-23.9,19.75-13.05,0-23.63-9.91-23.63-22.12a20.86,20.86,0,0,1,2.66-10.19,20.74,20.74,0,0,0-.66,5.19c0,12.21,10.58,22.12,23.63,22.12C196.37,183.91,204.86,177.32,209.1,169.16Z"/><path class="cls-15" d="M258.43,178.65c-21.16,7-47.11,8.31-54.8-2.46,10.08,7.44,32.86,5.77,51.8-.54,23-7.67,28.4-21.54,23.71-35.6a17,17,0,0,0-2.8-5.25,17.19,17.19,0,0,1,5.8,8.25C286.83,157.11,281.44,171,258.43,178.65Z"/></g></svg>