<svg id="Layer_1" data-name="Layer 1" xmlns="http://www.w3.org/2000/svg" viewBox="0 0 300 300"><defs><style>.cls-1,.cls-20{fill:#fff;}.cls-1,.cls-5,.cls-6,.cls-8{stroke:#000;}.cls-1,.cls-2,.cls-5,.cls-6,.cls-8{stroke-miterlimit:10;}.cls-1{stroke-width:5px;}.cls-2{fill:#2c0072;stroke:#fff;}.cls-3,.cls-8{fill:#fffcbd;}.cls-4,.cls-6{fill:#aa6500;}.cls-5{fill:none;}.cls-7{fill:#edd600;}.cls-11,.cls-9{fill:#724100;}.cls-10{fill:#ffce00;}.cls-11,.cls-12,.cls-19{opacity:0.3;}.cls-11,.cls-12,.cls-16,.cls-19{isolation:isolate;}.cls-12{fill:#2b1700;}.cls-13{fill:#0092ff;}.cls-14,.cls-19{fill:#02619b;}.cls-15{fill:#68c4fc;}.cls-16{fill:#005884;opacity:0.5;}.cls-17{fill:#caedff;}.cls-18{fill:#def4fc;}</style></defs><title>logo</title><g id="Layer_2" data-name="Layer 2"><circle class="cls-1" cx="150" cy="150" r="147.5"/></g><g id="Layer_1-2" data-name="Layer 1"><g id="icon"><circle class="cls-2" cx="150.3" cy="149.7" r="134"/><path class="cls-3" d="M131.9,64a118,118,0,0,0-24,8.6c4.5-31.3,9.8-26.8,9.8-26.8C127,49.9,130.6,58.9,131.9,64Z" transform="translate(0.5 -0.5)"/><path class="cls-4" d="M101.7,76.4A85.44,85.44,0,0,0,76.8,98.8c-41.1,19.1-42.6-4.1-42.6-10.2C57.8,54.5,91.3,70.3,101.7,76.4Z" transform="translate(0.5 -0.5)"/><path class="cls-5" d="M220.3,99.5c-.7-.4-1.4-.7-2.2-1.2a152.49,152.49,0,0,1-21.2-16.9s.9-.6,2.6-1.7A84.14,84.14,0,0,1,220.3,99.5Z" transform="translate(0.5 -0.5)"/><path d="M101.7,76.4A85.44,85.44,0,0,0,76.8,98.8c-33.6,15.6-40.7,2.9-42.1-5.6,3.1,7.5,12.6,14.5,41.1,1.4,5.3-7.3,16.5-12.2,25.9-18.2C103.3,77.1,100.7,75.8,101.7,76.4Z" transform="translate(0.5 -0.5)"/><path class="cls-6" d="M220.3,99.5a84.14,84.14,0,0,0-20.8-19.8" transform="translate(0.5 -0.5)"/><path class="cls-5" d="M220.3,99.5c-.7-.4-1.4-.7-2.2-1.2a152.49,152.49,0,0,1-21.2-16.9s.9-.6,2.6-1.7A84.14,84.14,0,0,1,220.3,99.5Z" transform="translate(0.5 -0.5)"/><path class="cls-7" d="M132.8,64a118,118,0,0,0-24,8.6C111,58,113.2,51.1,115,48c.1,0,.1.1.2.1-.3,2.3-1.1,8.2-3.1,22.2C119,66.9,123.8,66.2,132.8,64Z" transform="translate(0.5 -0.5)"/><path class="cls-8" d="M115,48" transform="translate(0.5 -0.5)"/><path class="cls-9" d="M99.8,76.4A79.38,79.38,0,0,0,75.1,96.6c-33.1,14.1-40.2,2.6-41.6-5,3,6.8,12.4,13.2,40.4,1.3,5.6-6.7,16.6-11.1,25.9-16.5C101.3,77.1,98.8,75.8,99.8,76.4Z" transform="translate(0.5 -0.5)"/><path class="cls-3" d="M169.7,66.8a118,118,0,0,1,24,8.6c-4.6-31.3-9.8-26.8-9.8-26.8C174.6,52.8,171,61.9,169.7,66.8Z" transform="translate(0.5 -0.5)"/><path class="cls-7" d="M168.7,66.8a118,118,0,0,1,24,8.6c-2.2-14.5-4.4-21.4-6.2-24.6-.1,0-.1.1-.2.1.3,2.3,1.1,8.2,3.1,22.2C182.5,69.8,177.9,69.1,168.7,66.8Z" transform="translate(0.5 -0.5)"/><path class="cls-8" d="M186.6,51" transform="translate(0.5 -0.5)"/><path class="cls-4" d="M197.8,79.3a84.17,84.17,0,0,1,24.9,22.4c41.1,19.1,42.6-4.1,42.6-10.2C241.7,57.4,208.2,73.2,197.8,79.3Z" transform="translate(0.5 -0.5)"/><path d="M197.8,79.3a84.17,84.17,0,0,1,24.9,22.4c33.6,15.6,40.7,2.9,42.1-5.6-3.1,7.5-12.6,14.5-41.1,1.4-5.3-7.3-16.5-12.2-25.9-18.2C196.2,80.1,198.8,78.7,197.8,79.3Z" transform="translate(0.5 -0.5)"/><path class="cls-9" d="M199.6,79.3a79.34,79.34,0,0,1,24.6,20.3c33.1,14.1,40.2,2.6,41.6-5-3,6.8-12.4,13.2-40.4,1.3C220,89.2,209,84.7,199.6,79.3,198.2,80,200.7,78.8,199.6,79.3Z" transform="translate(0.5 -0.5)"/><path class="cls-10" d="M238.9,163.5c0,42.8-40.1,77.5-89.5,77.5-46.4,0-84.6-30.6-89-69.8v-.3c-.7-4.9-14.3-94.1,86.1-109.7h3c81.9,12.7,89.7,74.4,89.4,99.3v3Z" transform="translate(0.5 -0.5)"/><path class="cls-11" d="M229.2,198.6c-14.8,25.1-44.9,42.3-79.8,42.3-46.4,0-84.6-30.6-89-69.8v-.3c-.4-3.3-6.8-44.8,19.8-76.3C62.5,124,67.7,157.2,68,160.2v.3c4.4,39.2,42.6,69.8,89,69.8C186.6,230.3,212.9,217.8,229.2,198.6Z" transform="translate(0.5 -0.5)"/><path class="cls-11" d="M69.8,199.5c14.8,25.1,44.9,42.3,79.8,42.3,46.4,0,84.6-30.6,89-69.8v-.3c.4-3.3,6.8-44.8-19.8-76.3,17.7,29.5,12.6,62.7,12.2,65.6v.3c-4.4,39.2-42.6,69.8-89,69.8C112.3,231.3,86,218.7,69.8,199.5Z" transform="translate(0.5 -0.5)"/><path class="cls-5" d="M164.8,239.8a110.16,110.16,0,0,1-15.3,1.2,101.6,101.6,0,0,1-19.2-1.8q10.65.9,22.2.9C156.7,240.1,160.7,240,164.8,239.8Z" transform="translate(0.5 -0.5)"/><path class="cls-4" d="M230.1,197c-12.3,22.1-36.5,38.5-65.4,42.8-4,.2-8.1.3-12.2.3-7.7,0-15.2-.4-22.2-.9-25.6-4.8-47.2-19.1-59.4-38.5,11.1-16.1,40.8-36.5,78.2-36.5C183.7,164.2,215.3,181.6,230.1,197Z" transform="translate(0.5 -0.5)"/><path class="cls-12" d="M204.7,206.5a15.75,15.75,0,0,1-.7,10.7,36.6,36.6,0,0,1-7,10.1,73.09,73.09,0,0,1-6.2,4.8,69.43,69.43,0,0,1-10,5.6h-.1c-23,10-52.6,7.4-78.7-8.4h0c-2.7-1.6-5.2-3.3-7.8-5.2A105.38,105.38,0,0,1,71,200.6l4.8-6h0a104.41,104.41,0,0,0,18.1,16.9l2.4,1.8c16.1,11.2,34.2,17.1,51.2,17.8,2.2.1,4.3.1,6.5,0,18.6-.7,35.7-7.8,47.6-21h0l.1-.1C202.2,209.4,203.3,208.3,204.7,206.5Z" transform="translate(0.5 -0.5)"/><path class="cls-12" d="M96.4,204.6a15.75,15.75,0,0,0,.7,10.7,36.6,36.6,0,0,0,7,10.1,73.09,73.09,0,0,0,6.2,4.8,69.43,69.43,0,0,0,10,5.6h.1c23,10,52.6,7.4,78.7-8.4h0c2.7-1.6,5.2-3.3,7.8-5.2a105.38,105.38,0,0,0,23.2-23.5l-4.8-6h0a104.41,104.41,0,0,1-18.1,16.9l-2.4,1.8c-16.1,11.2-34.2,17.1-51.2,17.8-2.2.1-4.3.1-6.5,0-18.6-.7-35.7-7.8-47.6-21h0l-.1-.1C99,207.5,97.9,206.3,96.4,204.6Z" transform="translate(0.5 -0.5)"/><path class="cls-13" d="M96.4,213.2c-1.8-12.4,12-26.7,29-22.1,6.3,1.7,12.2,5.9,16.7,10.6,0,0,8.3,7.3,17.4,0,4.5-4.8,10.3-8.9,16.7-10.6a23,23,0,0,1,28.6,15.4,15.75,15.75,0,0,1-.7,10.7,36.6,36.6,0,0,1-7,10.1,39.82,39.82,0,0,1-4.3,3.9,37.13,37.13,0,0,1-11.9,6.4h-.1a29.67,29.67,0,0,1-9.3,1.5,17,17,0,0,1-2.3-.1,21,21,0,0,1-15-8.1,18.16,18.16,0,0,1-3.2-7.4,18.16,18.16,0,0,1-3.2,7.4,21.55,21.55,0,0,1-17.3,8.2,32.63,32.63,0,0,1-16.3-4.6,40.18,40.18,0,0,1-16.3-17.4,8.16,8.16,0,0,1-1.5-3.9" transform="translate(0.5 -0.5)"/><path class="cls-14" d="M204,217.2a36.6,36.6,0,0,1-7,10.1,39.82,39.82,0,0,1-4.3,3.9,37.13,37.13,0,0,1-11.9,6.4h-.1a29.67,29.67,0,0,1-9.3,1.5,17,17,0,0,1-2.3-.1,21,21,0,0,1-15-8.1,18.16,18.16,0,0,1-3.2-7.4,18.16,18.16,0,0,1-3.2,7.4,21.55,21.55,0,0,1-17.3,8.2,32.63,32.63,0,0,1-16.3-4.6,40.18,40.18,0,0,1-16.3-17.4,15.24,15.24,0,0,1-1.2-4,22.75,22.75,0,0,1-.2-2.6,11.87,11.87,0,0,0,.8,2.2,39.31,39.31,0,0,0,16.4,17.4,33.36,33.36,0,0,0,16.5,4.6c7.4,0,13.8-3.2,17.5-8.2a16.91,16.91,0,0,0,3.2-7.4,18.16,18.16,0,0,0,3.2,7.4c3.3,4.5,8.7,7.4,15.2,8.1a17,17,0,0,0,2.3.1,29.83,29.83,0,0,0,9.4-1.5h.1a39.18,39.18,0,0,0,12.1-6.4,39.82,39.82,0,0,0,4.3-3.9,36.33,36.33,0,0,0,7.1-10.1,11.42,11.42,0,0,0,.9-2.6A14.65,14.65,0,0,1,204,217.2Z" transform="translate(0.5 -0.5)"/><path class="cls-5" d="M159.6,201.8" transform="translate(0.5 -0.5)"/><path class="cls-15" d="M150.5,219.3c0,10.5-9.1,19-20.2,19s-23.6-13.5-23.6-24,6.1-16.3,17.2-16.3S150.5,208.8,150.5,219.3Z" transform="translate(0.5 -0.5)"/><path class="cls-16" d="M150.5,219.3c0,10.5-9,19-20.2,19s-23.6-13.5-23.6-24a17.61,17.61,0,0,1,.3-3.3c.1,10.5,12.5,23.9,23.6,23.9,10,0,18.4-6.9,19.9-16Z" transform="translate(0.5 -0.5)"/><path class="cls-15" d="M151.5,220.3c0,10.5,9.1,19,20.2,19s23.6-13.5,23.6-24S189.2,199,178.1,199,151.5,209.8,151.5,220.3Z" transform="translate(0.5 -0.5)"/><path class="cls-16" d="M151.5,220.3c0,10.5,9,19,20.2,19s23.6-13.5,23.6-24a17.61,17.61,0,0,0-.3-3.3c-.1,10.5-12.5,23.9-23.6,23.9-10,0-18.4-6.9-19.9-16Z" transform="translate(0.5 -0.5)"/><path class="cls-17" d="M151.2,234.7c-14.5,0-26.4,10.1-26.4,22.6s11.8,22.6,26.4,22.6,26.4-10.1,26.4-22.6S165.8,234.7,151.2,234.7Zm.3,32c-7.1,0-12.7-6.5-12.7-14.6s5.7-14.6,12.7-14.6,12.7,6.5,12.7,14.6S158.6,266.7,151.5,266.7Z" transform="translate(0.5 -0.5)"/><path class="cls-16" d="M177.7,257.3c0,12.5-11.8,22.6-26.4,22.6S125,269.7,125,257.3a19.42,19.42,0,0,1,.2-2.4c1.4,11.3,12.6,20.2,26.3,20.2s24.8-8.8,26.3-20.2A9.66,9.66,0,0,0,177.7,257.3Z" transform="translate(0.5 -0.5)"/><ellipse class="cls-18" cx="152.3" cy="232.6" rx="18.8" ry="15.9"/><path class="cls-19" d="M170.5,234.9c-1,8-9,14.2-18.7,14.2-10.4,0-18.8-7.1-18.8-15.9a15.48,15.48,0,0,1,.7-4.3,9.7,9.7,0,0,0-.1,1.7c0,8.8,8.4,15.9,18.8,15.9C161,246.5,168.3,241.6,170.5,234.9Z" transform="translate(0.5 -0.5)"/><ellipse cx="129.4" cy="134.1" rx="4" ry="12.7"/><circle class="cls-20" cx="129.6" cy="126.8" r="2.2"/><ellipse cx="167.4" cy="134.1" rx="4" ry="12.7"/><circle class="cls-20" cx="167.6" cy="126.8" r="2.2"/></g></g></svg>