<?xml version="1.0" encoding="utf-8"?>
<!-- Generator: Adobe Illustrator 21.0.0, SVG Export Plug-In . SVG Version: 6.00 Build 0)  -->
<svg version="1.1" xmlns="http://www.w3.org/2000/svg" xmlns:xlink="http://www.w3.org/1999/xlink" x="0px" y="0px"
	 viewBox="0 0 300 300" style="enable-background:new 0 0 300 300;" xml:space="preserve">
<style type="text/css">
	.st0{display:none;}
	.st1{display:inline;fill:#0A263D;}
	.st2{display:inline;}
	.st3{fill:none;stroke:#3FAAE0;stroke-width:2;stroke-miterlimit:10;}
	.st4{display:inline;fill:none;stroke:#9C54A1;stroke-width:2;stroke-miterlimit:10;}
	.st5{display:inline;fill:#3FAAE0;}
	.st6{fill:none;stroke:#06AD4B;stroke-width:2;stroke-miterlimit:10;}
	.st7{display:inline;fill:none;stroke:#3FAAE0;stroke-width:2;stroke-miterlimit:10;}
	.st8{display:inline;fill:none;stroke:#06AD4B;stroke-width:2;stroke-miterlimit:10;}
	.st9{display:inline;fill:none;stroke:#E2D63E;stroke-width:2;stroke-miterlimit:10;}
	.st10{fill:none;stroke:#E09F3E;stroke-width:2;stroke-miterlimit:10;}
	.st11{fill:#3FAAE0;}
	.st12{fill:none;stroke:#9C54A1;stroke-width:2;stroke-miterlimit:10;}
	.st13{fill:none;stroke:#E2D63E;stroke-width:2;stroke-miterlimit:10;}
	.st14{fill:none;stroke:#B51F6F;stroke-width:2;stroke-miterlimit:10;}
</style>
<g id="background" class="st0">
	<rect class="st1" width="300" height="300"/>
</g>
<g id="secondary" class="st0">
	<g class="st2">
		<line class="st3" x1="220.3" y1="91.9" x2="220.3" y2="105.5"/>
		<line class="st3" x1="227.2" y1="98.7" x2="213.5" y2="98.7"/>
	</g>
	<path class="st4" d="M216.1,200.5c3.4-3.4,8.8-3.4,12.1,0c3.4,3.4,3.4,8.8,0,12.1"/>
	
		<ellipse transform="matrix(0.7071 -0.7071 0.7071 0.7071 -79.0083 218.4277)" class="st5" cx="224.2" cy="204.6" rx="0.9" ry="0.9"/>
	<g class="st2">
		<line class="st6" x1="94.7" y1="94.1" x2="103.7" y2="103.1"/>
		<line class="st6" x1="103.7" y1="94.1" x2="94.7" y2="103.1"/>
	</g>
	<path class="st7" d="M94.7,200.4c2.1,2.1,2.1,5.5,0,7.5c-2.1,2.1-5.5,2.1-7.5,0"/>
	
		<ellipse transform="matrix(0.7071 -0.7071 0.7071 0.7071 -118.2584 125.329)" class="st5" cx="92.2" cy="205.4" rx="0.5" ry="0.5"/>
	<polygon class="st8" points="160.9,203 151,205.7 158.2,213 	"/>
	
		<ellipse transform="matrix(0.7071 -0.7071 0.7071 0.7071 -100.7981 171.2756)" class="st5" cx="156.3" cy="207.3" rx="0.5" ry="0.5"/>
	<rect x="152.3" y="93.9" class="st9" width="8" height="8"/>
	<circle class="st5" cx="156.3" cy="97.9" r="0.4"/>
</g>
<g id="Layer_1">
	<rect x="145.2" y="133.9" class="st10" width="26.3" height="26.3"/>
	<circle class="st11" cx="158.5" cy="147.1" r="1.5"/>
	<polygon class="st10" points="248.3,34.8 275.8,50.6 275.8,18.9 	"/>
	<polygon class="st12" points="158.4,249.6 142.5,277.2 174.3,277.2 	"/>
	<circle class="st13" cx="44.3" cy="147.5" r="15.4"/>
	<circle class="st6" cx="44.3" cy="147.5" r="1.5"/>
	<polygon class="st13" points="254.6,161.5 286.4,162.5 271.4,134.5 	"/>
	
		<ellipse transform="matrix(0.8817 -0.4717 0.4717 0.8817 -39.9716 146.3388)" class="st11" cx="271.9" cy="152.9" rx="1.5" ry="1.5"/>
	<g>
		<line class="st13" x1="43.1" y1="245.2" x2="43.1" y2="275.5"/>
		<line class="st13" x1="58.2" y1="260.3" x2="28" y2="260.3"/>
	</g>
	
		<rect x="30.3" y="19.1" transform="matrix(0.7071 0.7071 -0.7071 0.7071 35.7345 -21.3864)" class="st3" width="26.7" height="26.7"/>
	<ellipse transform="matrix(0.7071 -0.7071 0.7071 0.7071 -10.2107 40.4442)" class="st14" cx="43.7" cy="32.5" rx="1.5" ry="1.5"/>
	<circle class="st14" cx="159.5" cy="28.6" r="15.6"/>
	<circle class="st13" cx="159.5" cy="28.6" r="1.6"/>
	<g>
		<line class="st6" x1="250.3" y1="253.1" x2="272.4" y2="275.1"/>
		<line class="st6" x1="272.4" y1="253.1" x2="250.3" y2="275.1"/>
	</g>
</g>
</svg>
