<svg id="Layer_1" data-name="Layer 1" xmlns="http://www.w3.org/2000/svg" viewBox="0 0 255.36 268.45"><defs><style>.cls-1{fill:none;}.cls-1,.cls-2,.cls-3{stroke:#754c24;stroke-miterlimit:10;}.cls-1,.cls-3{stroke-width:4px;}.cls-2,.cls-4{fill:#754c24;}.cls-3{fill:#fff;}</style></defs><title>pattern</title><path class="cls-1" d="M242.06,122.74a27.54,27.54,0,0,1,2.89-.15A28.08,28.08,0,0,1,269.12,165c-4.88-6-13.88-10-24.17-10s-19.29,4-24.17,10a28.06,28.06,0,0,1,1.92-31.47,27,27,0,0,1,4-4.2A27.63,27.63,0,0,1,234,124.8h0c.41-.17.83-.33,1.26-.49s1.08-.38,1.63-.54" transform="translate(-22.35 -19.14)"/><path class="cls-1" d="M226.1,118.72a3.66,3.66,0,0,1-2.29,2.54" transform="translate(-22.35 -19.14)"/><path class="cls-1" d="M226.1,118.72a3.66,3.66,0,0,1-2.29,2.54" transform="translate(-22.35 -19.14)"/><path class="cls-1" d="M222.7,133.53a9.87,9.87,0,0,1-1.3-19.21,1.89,1.89,0,0,1,.34-.09l.14,0a3.49,3.49,0,0,1,.65-.06,3.68,3.68,0,0,1,3.68,3.68,3.82,3.82,0,0,1-.11.9,3.66,3.66,0,0,1-2.29,2.54,5.84,5.84,0,0,0-.6,2.6,6,6,0,0,0,3.5,5.47A31.62,31.62,0,0,0,222.7,133.53Z" transform="translate(-22.35 -19.14)"/><path class="cls-1" d="M263.35,129.33a6,6,0,0,0,3.5-5.47,5.84,5.84,0,0,0-.6-2.6,3.66,3.66,0,0,1-2.29-2.54,3.82,3.82,0,0,1-.11-.9,3.68,3.68,0,0,1,3.68-3.68,3.49,3.49,0,0,1,.65.06l.14,0a1.89,1.89,0,0,1,.34.09,9.87,9.87,0,0,1-1.3,19.21A31.62,31.62,0,0,0,263.35,129.33Z" transform="translate(-22.35 -19.14)"/><path class="cls-1" d="M242.07,122.29c0,.15,0,.3,0,.45a27.31,27.31,0,0,0-5.15,1,6.91,6.91,0,0,1-.15-1.47c0-2.49,1.19-4.52,2.65-4.52S242.07,119.8,242.07,122.29Z" transform="translate(-22.35 -19.14)"/><path class="cls-1" d="M247.76,122.29c0,.15,0,.3,0,.45a27.31,27.31,0,0,1,5.15,1,6.91,6.91,0,0,0,.15-1.47c0-2.49-1.19-4.52-2.65-4.52S247.76,119.8,247.76,122.29Z" transform="translate(-22.35 -19.14)"/><ellipse class="cls-2" cx="216.1" cy="123.89" rx="1.69" ry="5.71"/><ellipse class="cls-2" cx="229.1" cy="123.89" rx="1.69" ry="5.71"/><path class="cls-1" d="M269.12,165a28.09,28.09,0,0,1-48.34,0c4.88-6,13.88-10,24.17-10S264.24,159,269.12,165Z" transform="translate(-22.35 -19.14)"/><path class="cls-3" d="M252.07,175.28a6.76,6.76,0,0,1-.19,1.64,7.1,7.1,0,0,1-1.37,2.86,6.45,6.45,0,0,1-1.37,1.34,7.26,7.26,0,0,1-8.76,0,6.45,6.45,0,0,1-1.37-1.34,7,7,0,0,1-1.39-3h0a7,7,0,0,1-.17-1.53,7.31,7.31,0,1,1,14.62,0Z" transform="translate(-22.35 -19.14)"/><path class="cls-3" d="M252.07,184.28a7.31,7.31,0,0,1-14.62,0,7.22,7.22,0,0,1,1.56-4.5,6.45,6.45,0,0,0,1.37,1.34.86.86,0,0,0,0,.16,4.39,4.39,0,0,0,8.78,0,.86.86,0,0,0,0-.16,6.45,6.45,0,0,0,1.37-1.34A7.22,7.22,0,0,1,252.07,184.28Z" transform="translate(-22.35 -19.14)"/><path class="cls-1" d="M242.06,29.74a27.54,27.54,0,0,1,2.89-.15A28.08,28.08,0,0,1,269.12,72c-4.88-6-13.88-10-24.17-10s-19.29,4-24.17,10a28.06,28.06,0,0,1,1.92-31.47,27,27,0,0,1,4-4.2A27.63,27.63,0,0,1,234,31.8h0c.41-.17.83-.33,1.26-.49s1.08-.38,1.63-.54" transform="translate(-22.35 -19.14)"/><path class="cls-1" d="M226.1,25.72a3.66,3.66,0,0,1-2.29,2.54" transform="translate(-22.35 -19.14)"/><path class="cls-1" d="M226.1,25.72a3.66,3.66,0,0,1-2.29,2.54" transform="translate(-22.35 -19.14)"/><path class="cls-1" d="M222.7,40.53a9.87,9.87,0,0,1-1.3-19.21,1.89,1.89,0,0,1,.34-.09l.14,0a3.49,3.49,0,0,1,.65-.06,3.68,3.68,0,0,1,3.68,3.68,3.82,3.82,0,0,1-.11.9,3.66,3.66,0,0,1-2.29,2.54,5.84,5.84,0,0,0-.6,2.6,6,6,0,0,0,3.5,5.47A31.62,31.62,0,0,0,222.7,40.53Z" transform="translate(-22.35 -19.14)"/><path class="cls-1" d="M263.35,36.33a6,6,0,0,0,3.5-5.47,5.84,5.84,0,0,0-.6-2.6A3.66,3.66,0,0,1,264,25.72a3.82,3.82,0,0,1-.11-.9,3.68,3.68,0,0,1,3.68-3.68,3.49,3.49,0,0,1,.65.06l.14,0a1.89,1.89,0,0,1,.34.09,9.87,9.87,0,0,1-1.3,19.21A31.62,31.62,0,0,0,263.35,36.33Z" transform="translate(-22.35 -19.14)"/><path class="cls-1" d="M242.07,29.29c0,.15,0,.3,0,.45a27.31,27.31,0,0,0-5.15,1,6.91,6.91,0,0,1-.15-1.47c0-2.49,1.19-4.52,2.65-4.52S242.07,26.8,242.07,29.29Z" transform="translate(-22.35 -19.14)"/><path class="cls-1" d="M247.76,29.29c0,.15,0,.3,0,.45a27.31,27.31,0,0,1,5.15,1,6.91,6.91,0,0,0,.15-1.47c0-2.49-1.19-4.52-2.65-4.52S247.76,26.8,247.76,29.29Z" transform="translate(-22.35 -19.14)"/><path class="cls-1" d="M269.12,72a28.09,28.09,0,0,1-48.34,0c4.88-6,13.88-10,24.17-10S264.24,66,269.12,72Z" transform="translate(-22.35 -19.14)"/><path class="cls-3" d="M252.07,82.28a6.76,6.76,0,0,1-.19,1.64,7.1,7.1,0,0,1-1.37,2.86,6.45,6.45,0,0,1-1.37,1.34,7.26,7.26,0,0,1-8.76,0A6.45,6.45,0,0,1,239,86.78a7,7,0,0,1-1.39-3h0a7,7,0,0,1-.17-1.53,7.31,7.31,0,1,1,14.62,0Z" transform="translate(-22.35 -19.14)"/><path class="cls-3" d="M252.07,91.28a7.31,7.31,0,1,1-14.62,0,7.22,7.22,0,0,1,1.56-4.5,6.45,6.45,0,0,0,1.37,1.34.86.86,0,0,0,0,.16,4.39,4.39,0,0,0,8.78,0,.86.86,0,0,0,0-.16,6.45,6.45,0,0,0,1.37-1.34A7.22,7.22,0,0,1,252.07,91.28Z" transform="translate(-22.35 -19.14)"/><circle class="cls-1" cx="213.92" cy="29.63" r="6.34"/><circle class="cls-1" cx="231.92" cy="29.63" r="6.34"/><path class="cls-1" d="M52.06,216.74a27.54,27.54,0,0,1,2.89-.15A28.08,28.08,0,0,1,79.12,259c-4.88-6-13.88-10-24.17-10s-19.29,4-24.17,10a28.06,28.06,0,0,1,1.92-31.47,27,27,0,0,1,4-4.2A27.63,27.63,0,0,1,44,218.8h0c.41-.17.83-.33,1.26-.49s1.08-.38,1.63-.54" transform="translate(-22.35 -19.14)"/><path class="cls-1" d="M36.1,212.72a3.66,3.66,0,0,1-2.29,2.54" transform="translate(-22.35 -19.14)"/><path class="cls-1" d="M36.1,212.72a3.66,3.66,0,0,1-2.29,2.54" transform="translate(-22.35 -19.14)"/><path class="cls-1" d="M32.7,227.53a9.87,9.87,0,0,1-1.3-19.21,1.89,1.89,0,0,1,.34-.09l.14,0a3.49,3.49,0,0,1,.65-.06,3.68,3.68,0,0,1,3.68,3.68,3.82,3.82,0,0,1-.11.9,3.66,3.66,0,0,1-2.29,2.54,5.84,5.84,0,0,0-.6,2.6,6,6,0,0,0,3.5,5.47A31.62,31.62,0,0,0,32.7,227.53Z" transform="translate(-22.35 -19.14)"/><path class="cls-1" d="M73.35,223.33a6,6,0,0,0,3.5-5.47,5.84,5.84,0,0,0-.6-2.6A3.66,3.66,0,0,1,74,212.72a3.82,3.82,0,0,1-.11-.9,3.68,3.68,0,0,1,3.68-3.68,3.49,3.49,0,0,1,.65.06l.14,0a1.89,1.89,0,0,1,.34.09,9.87,9.87,0,0,1-1.3,19.21A31.62,31.62,0,0,0,73.35,223.33Z" transform="translate(-22.35 -19.14)"/><path class="cls-1" d="M52.07,216.29c0,.15,0,.3,0,.45a27.31,27.31,0,0,0-5.15,1,6.91,6.91,0,0,1-.15-1.47c0-2.49,1.19-4.52,2.65-4.52S52.07,213.8,52.07,216.29Z" transform="translate(-22.35 -19.14)"/><path class="cls-1" d="M57.76,216.29c0,.15,0,.3,0,.45a27.31,27.31,0,0,1,5.15,1,6.91,6.91,0,0,0,.15-1.47c0-2.49-1.19-4.52-2.65-4.52S57.76,213.8,57.76,216.29Z" transform="translate(-22.35 -19.14)"/><path class="cls-1" d="M79.12,259a28.09,28.09,0,0,1-48.34,0c4.88-6,13.88-10,24.17-10S74.24,253,79.12,259Z" transform="translate(-22.35 -19.14)"/><path class="cls-3" d="M62.07,269.28a6.76,6.76,0,0,1-.19,1.64,7.1,7.1,0,0,1-1.37,2.86,6.45,6.45,0,0,1-1.37,1.34,7.26,7.26,0,0,1-8.76,0A6.45,6.45,0,0,1,49,273.78a7,7,0,0,1-1.39-3h0a7,7,0,0,1-.17-1.53,7.31,7.31,0,1,1,14.62,0Z" transform="translate(-22.35 -19.14)"/><path class="cls-3" d="M62.07,278.28a7.31,7.31,0,0,1-14.62,0,7.22,7.22,0,0,1,1.56-4.5,6.45,6.45,0,0,0,1.37,1.34.86.86,0,0,0,0,.16,4.39,4.39,0,0,0,8.78,0,.86.86,0,0,0,0-.16,6.45,6.45,0,0,0,1.37-1.34A7.22,7.22,0,0,1,62.07,278.28Z" transform="translate(-22.35 -19.14)"/><path class="cls-1" d="M39.93,235.77" transform="translate(-22.35 -19.14)"/><path class="cls-1" d="M39.93,241.77a6.34,6.34,0,1,1,12.68,0" transform="translate(-22.35 -19.14)"/><path class="cls-1" d="M57.93,241.77" transform="translate(-22.35 -19.14)"/><path class="cls-1" d="M57.93,241.77a6.34,6.34,0,1,1,12.68,0" transform="translate(-22.35 -19.14)"/><path class="cls-1" d="M147.06,215.74a27.54,27.54,0,0,1,2.89-.15A28.08,28.08,0,0,1,174.12,258c-4.88-6-13.88-10-24.17-10s-19.29,4-24.17,10a28.06,28.06,0,0,1,1.92-31.47,27,27,0,0,1,4-4.2A27.63,27.63,0,0,1,139,217.8h0c.41-.17.83-.33,1.26-.49s1.08-.38,1.63-.54" transform="translate(-22.35 -19.14)"/><path class="cls-1" d="M131.1,211.72a3.66,3.66,0,0,1-2.29,2.54" transform="translate(-22.35 -19.14)"/><path class="cls-1" d="M131.1,211.72a3.66,3.66,0,0,1-2.29,2.54" transform="translate(-22.35 -19.14)"/><path class="cls-1" d="M127.7,226.53a9.87,9.87,0,0,1-1.3-19.21,1.89,1.89,0,0,1,.34-.09l.14,0a3.49,3.49,0,0,1,.65-.06,3.68,3.68,0,0,1,3.68,3.68,3.82,3.82,0,0,1-.11.9,3.66,3.66,0,0,1-2.29,2.54,5.84,5.84,0,0,0-.6,2.6,6,6,0,0,0,3.5,5.47A31.62,31.62,0,0,0,127.7,226.53Z" transform="translate(-22.35 -19.14)"/><path class="cls-1" d="M168.35,222.33a6,6,0,0,0,3.5-5.47,5.84,5.84,0,0,0-.6-2.6,3.66,3.66,0,0,1-2.29-2.54,3.82,3.82,0,0,1-.11-.9,3.68,3.68,0,0,1,3.68-3.68,3.49,3.49,0,0,1,.65.06l.14,0a1.89,1.89,0,0,1,.34.09,9.87,9.87,0,0,1-1.3,19.21A31.62,31.62,0,0,0,168.35,222.33Z" transform="translate(-22.35 -19.14)"/><path class="cls-1" d="M147.07,215.29c0,.15,0,.3,0,.45a27.31,27.31,0,0,0-5.15,1,6.91,6.91,0,0,1-.15-1.47c0-2.49,1.19-4.52,2.65-4.52S147.07,212.8,147.07,215.29Z" transform="translate(-22.35 -19.14)"/><path class="cls-1" d="M152.76,215.29c0,.15,0,.3,0,.45a27.31,27.31,0,0,1,5.15,1,6.91,6.91,0,0,0,.15-1.47c0-2.49-1.19-4.52-2.65-4.52S152.76,212.8,152.76,215.29Z" transform="translate(-22.35 -19.14)"/><path class="cls-1" d="M174.12,258a28.09,28.09,0,0,1-48.34,0c4.88-6,13.88-10,24.17-10S169.24,252,174.12,258Z" transform="translate(-22.35 -19.14)"/><path class="cls-3" d="M157.07,268.28a6.76,6.76,0,0,1-.19,1.64,7.1,7.1,0,0,1-1.37,2.86,6.45,6.45,0,0,1-1.37,1.34,7.26,7.26,0,0,1-8.76,0,6.45,6.45,0,0,1-1.37-1.34,7,7,0,0,1-1.39-3h0a7,7,0,0,1-.17-1.53,7.31,7.31,0,1,1,14.62,0Z" transform="translate(-22.35 -19.14)"/><path class="cls-3" d="M157.07,277.28a7.31,7.31,0,0,1-14.62,0,7.22,7.22,0,0,1,1.56-4.5,6.45,6.45,0,0,0,1.37,1.34.86.86,0,0,0,0,.16,4.39,4.39,0,0,0,8.78,0,.86.86,0,0,0,0-.16,6.45,6.45,0,0,0,1.37-1.34A7.22,7.22,0,0,1,157.07,277.28Z" transform="translate(-22.35 -19.14)"/><path class="cls-1" d="M134.93,234.77" transform="translate(-22.35 -19.14)"/><path class="cls-1" d="M134.93,234.43a6.34,6.34,0,0,0,12.68,0" transform="translate(-22.35 -19.14)"/><path class="cls-1" d="M152.93,240.77" transform="translate(-22.35 -19.14)"/><path class="cls-1" d="M152.93,234.43a6.34,6.34,0,0,0,12.68,0" transform="translate(-22.35 -19.14)"/><path class="cls-1" d="M242.06,215.74a27.54,27.54,0,0,1,2.89-.15A28.08,28.08,0,0,1,269.12,258c-4.88-6-13.88-10-24.17-10s-19.29,4-24.17,10a28.06,28.06,0,0,1,1.92-31.47,27,27,0,0,1,4-4.2A27.63,27.63,0,0,1,234,217.8h0c.41-.17.83-.33,1.26-.49s1.08-.38,1.63-.54" transform="translate(-22.35 -19.14)"/><path class="cls-1" d="M226.1,211.72a3.66,3.66,0,0,1-2.29,2.54" transform="translate(-22.35 -19.14)"/><path class="cls-1" d="M226.1,211.72a3.66,3.66,0,0,1-2.29,2.54" transform="translate(-22.35 -19.14)"/><path class="cls-1" d="M222.7,226.53a9.87,9.87,0,0,1-1.3-19.21,1.89,1.89,0,0,1,.34-.09l.14,0a3.49,3.49,0,0,1,.65-.06,3.68,3.68,0,0,1,3.68,3.68,3.82,3.82,0,0,1-.11.9,3.66,3.66,0,0,1-2.29,2.54,5.84,5.84,0,0,0-.6,2.6,6,6,0,0,0,3.5,5.47A31.62,31.62,0,0,0,222.7,226.53Z" transform="translate(-22.35 -19.14)"/><path class="cls-1" d="M263.35,222.33a6,6,0,0,0,3.5-5.47,5.84,5.84,0,0,0-.6-2.6,3.66,3.66,0,0,1-2.29-2.54,3.82,3.82,0,0,1-.11-.9,3.68,3.68,0,0,1,3.68-3.68,3.49,3.49,0,0,1,.65.06l.14,0a1.89,1.89,0,0,1,.34.09,9.87,9.87,0,0,1-1.3,19.21A31.62,31.62,0,0,0,263.35,222.33Z" transform="translate(-22.35 -19.14)"/><path class="cls-1" d="M242.07,215.29c0,.15,0,.3,0,.45a27.31,27.31,0,0,0-5.15,1,6.91,6.91,0,0,1-.15-1.47c0-2.49,1.19-4.52,2.65-4.52S242.07,212.8,242.07,215.29Z" transform="translate(-22.35 -19.14)"/><path class="cls-1" d="M247.76,215.29c0,.15,0,.3,0,.45a27.31,27.31,0,0,1,5.15,1,6.91,6.91,0,0,0,.15-1.47c0-2.49-1.19-4.52-2.65-4.52S247.76,212.8,247.76,215.29Z" transform="translate(-22.35 -19.14)"/><path class="cls-1" d="M269.12,258a28.09,28.09,0,0,1-48.34,0c4.88-6,13.88-10,24.17-10S264.24,252,269.12,258Z" transform="translate(-22.35 -19.14)"/><path class="cls-3" d="M252.07,268.28a6.76,6.76,0,0,1-.19,1.64,7.1,7.1,0,0,1-1.37,2.86,6.45,6.45,0,0,1-1.37,1.34,7.26,7.26,0,0,1-8.76,0,6.45,6.45,0,0,1-1.37-1.34,7,7,0,0,1-1.39-3h0a7,7,0,0,1-.17-1.53,7.31,7.31,0,1,1,14.62,0Z" transform="translate(-22.35 -19.14)"/><path class="cls-3" d="M252.07,277.28a7.31,7.31,0,0,1-14.62,0,7.22,7.22,0,0,1,1.56-4.5,6.45,6.45,0,0,0,1.37,1.34.86.86,0,0,0,0,.16,4.39,4.39,0,0,0,8.78,0,.86.86,0,0,0,0-.16,6.45,6.45,0,0,0,1.37-1.34A7.22,7.22,0,0,1,252.07,277.28Z" transform="translate(-22.35 -19.14)"/><path class="cls-1" d="M229.93,234.77" transform="translate(-22.35 -19.14)"/><path class="cls-4" d="M233,243.94l8.95-6a1.52,1.52,0,0,0,0-2.59l-9.65-4.76c-1.73-.85-3.25,1.74-1.51,2.59l9.65,4.76v-2.59l-8.95,6c-1.6,1.07-.1,3.67,1.51,2.59Z" transform="translate(-22.35 -19.14)"/><path class="cls-4" d="M257.27,241.35l-8.95-6V238L258,233.2c1.73-.85.21-3.44-1.51-2.59l-9.65,4.76a1.52,1.52,0,0,0,0,2.59l8.95,6c1.61,1.08,3.11-1.52,1.51-2.59Z" transform="translate(-22.35 -19.14)"/><path class="cls-1" d="M52.06,123.74a27.54,27.54,0,0,1,2.89-.15A28.08,28.08,0,0,1,79.12,166c-4.88-6-13.88-10-24.17-10s-19.29,4-24.17,10a28.06,28.06,0,0,1,1.92-31.47,27,27,0,0,1,4-4.2A27.63,27.63,0,0,1,44,125.8h0c.41-.17.83-.33,1.26-.49s1.08-.38,1.63-.54" transform="translate(-22.35 -19.14)"/><path class="cls-1" d="M36.1,119.72a3.66,3.66,0,0,1-2.29,2.54" transform="translate(-22.35 -19.14)"/><path class="cls-1" d="M36.1,119.72a3.66,3.66,0,0,1-2.29,2.54" transform="translate(-22.35 -19.14)"/><path class="cls-1" d="M32.7,134.53a9.87,9.87,0,0,1-1.3-19.21,1.89,1.89,0,0,1,.34-.09l.14,0a3.49,3.49,0,0,1,.65-.06,3.68,3.68,0,0,1,3.68,3.68,3.82,3.82,0,0,1-.11.9,3.66,3.66,0,0,1-2.29,2.54,5.84,5.84,0,0,0-.6,2.6,6,6,0,0,0,3.5,5.47A31.62,31.62,0,0,0,32.7,134.53Z" transform="translate(-22.35 -19.14)"/><path class="cls-1" d="M73.35,130.33a6,6,0,0,0,3.5-5.47,5.84,5.84,0,0,0-.6-2.6A3.66,3.66,0,0,1,74,119.72a3.82,3.82,0,0,1-.11-.9,3.68,3.68,0,0,1,3.68-3.68,3.49,3.49,0,0,1,.65.06l.14,0a1.89,1.89,0,0,1,.34.09,9.87,9.87,0,0,1-1.3,19.21A31.62,31.62,0,0,0,73.35,130.33Z" transform="translate(-22.35 -19.14)"/><path class="cls-1" d="M52.07,123.29c0,.15,0,.3,0,.45a27.31,27.31,0,0,0-5.15,1,6.91,6.91,0,0,1-.15-1.47c0-2.49,1.19-4.52,2.65-4.52S52.07,120.8,52.07,123.29Z" transform="translate(-22.35 -19.14)"/><path class="cls-1" d="M57.76,123.29c0,.15,0,.3,0,.45a27.31,27.31,0,0,1,5.15,1,6.91,6.91,0,0,0,.15-1.47c0-2.49-1.19-4.52-2.65-4.52S57.76,120.8,57.76,123.29Z" transform="translate(-22.35 -19.14)"/><ellipse class="cls-2" cx="26.1" cy="124.89" rx="1.69" ry="5.71"/><ellipse class="cls-2" cx="39.1" cy="124.89" rx="1.69" ry="5.71"/><path class="cls-1" d="M79.12,166a28.09,28.09,0,0,1-48.34,0c4.88-6,13.88-10,24.17-10S74.24,160,79.12,166Z" transform="translate(-22.35 -19.14)"/><path class="cls-3" d="M62.07,176.28a6.76,6.76,0,0,1-.19,1.64,7.1,7.1,0,0,1-1.37,2.86,6.45,6.45,0,0,1-1.37,1.34,7.26,7.26,0,0,1-8.76,0A6.45,6.45,0,0,1,49,180.78a7,7,0,0,1-1.39-3h0a7,7,0,0,1-.17-1.53,7.31,7.31,0,1,1,14.62,0Z" transform="translate(-22.35 -19.14)"/><path class="cls-3" d="M62.07,185.28a7.31,7.31,0,0,1-14.62,0,7.22,7.22,0,0,1,1.56-4.5,6.45,6.45,0,0,0,1.37,1.34.86.86,0,0,0,0,.16,4.39,4.39,0,0,0,8.78,0,.86.86,0,0,0,0-.16,6.45,6.45,0,0,0,1.37-1.34A7.22,7.22,0,0,1,62.07,185.28Z" transform="translate(-22.35 -19.14)"/><path class="cls-4" d="M52,139.38l-9.65-4.76c-1.73-.85-3.25,1.74-1.51,2.59L50.45,142c1.73.85,3.25-1.74,1.51-2.59Z" transform="translate(-22.35 -19.14)"/><path class="cls-4" d="M59.32,142,69,137.2c1.73-.85.21-3.44-1.51-2.59l-9.65,4.76c-1.73.85-.21,3.44,1.51,2.59Z" transform="translate(-22.35 -19.14)"/><path class="cls-1" d="M147.06,122.74a27.54,27.54,0,0,1,2.89-.15A28.08,28.08,0,0,1,174.12,165c-4.88-6-13.88-10-24.17-10s-19.29,4-24.17,10a28.06,28.06,0,0,1,1.92-31.47,27,27,0,0,1,4-4.2A27.63,27.63,0,0,1,139,124.8h0c.41-.17.83-.33,1.26-.49s1.08-.38,1.63-.54" transform="translate(-22.35 -19.14)"/><path class="cls-1" d="M131.1,118.72a3.66,3.66,0,0,1-2.29,2.54" transform="translate(-22.35 -19.14)"/><path class="cls-1" d="M131.1,118.72a3.66,3.66,0,0,1-2.29,2.54" transform="translate(-22.35 -19.14)"/><path class="cls-1" d="M127.7,133.53a9.87,9.87,0,0,1-1.3-19.21,1.89,1.89,0,0,1,.34-.09l.14,0a3.49,3.49,0,0,1,.65-.06,3.68,3.68,0,0,1,3.68,3.68,3.82,3.82,0,0,1-.11.9,3.66,3.66,0,0,1-2.29,2.54,5.84,5.84,0,0,0-.6,2.6,6,6,0,0,0,3.5,5.47A31.62,31.62,0,0,0,127.7,133.53Z" transform="translate(-22.35 -19.14)"/><path class="cls-1" d="M168.35,129.33a6,6,0,0,0,3.5-5.47,5.84,5.84,0,0,0-.6-2.6,3.66,3.66,0,0,1-2.29-2.54,3.82,3.82,0,0,1-.11-.9,3.68,3.68,0,0,1,3.68-3.68,3.49,3.49,0,0,1,.65.06l.14,0a1.89,1.89,0,0,1,.34.09,9.87,9.87,0,0,1-1.3,19.21A31.62,31.62,0,0,0,168.35,129.33Z" transform="translate(-22.35 -19.14)"/><path class="cls-1" d="M147.07,122.29c0,.15,0,.3,0,.45a27.31,27.31,0,0,0-5.15,1,6.91,6.91,0,0,1-.15-1.47c0-2.49,1.19-4.52,2.65-4.52S147.07,119.8,147.07,122.29Z" transform="translate(-22.35 -19.14)"/><path class="cls-1" d="M152.76,122.29c0,.15,0,.3,0,.45a27.31,27.31,0,0,1,5.15,1,6.91,6.91,0,0,0,.15-1.47c0-2.49-1.19-4.52-2.65-4.52S152.76,119.8,152.76,122.29Z" transform="translate(-22.35 -19.14)"/><ellipse class="cls-2" cx="121.1" cy="123.89" rx="1.69" ry="5.71"/><ellipse class="cls-2" cx="134.1" cy="123.89" rx="1.69" ry="5.71"/><path class="cls-1" d="M174.12,165a28.09,28.09,0,0,1-48.34,0c4.88-6,13.88-10,24.17-10S169.24,159,174.12,165Z" transform="translate(-22.35 -19.14)"/><path class="cls-3" d="M157.07,175.28a6.76,6.76,0,0,1-.19,1.64,7.1,7.1,0,0,1-1.37,2.86,6.45,6.45,0,0,1-1.37,1.34,7.26,7.26,0,0,1-8.76,0,6.45,6.45,0,0,1-1.37-1.34,7,7,0,0,1-1.39-3h0a7,7,0,0,1-.17-1.53,7.31,7.31,0,1,1,14.62,0Z" transform="translate(-22.35 -19.14)"/><path class="cls-3" d="M157.07,184.28a7.31,7.31,0,0,1-14.62,0,7.22,7.22,0,0,1,1.56-4.5,6.45,6.45,0,0,0,1.37,1.34.86.86,0,0,0,0,.16,4.39,4.39,0,0,0,8.78,0,.86.86,0,0,0,0-.16,6.45,6.45,0,0,0,1.37-1.34A7.22,7.22,0,0,1,157.07,184.28Z" transform="translate(-22.35 -19.14)"/><path class="cls-4" d="M145.45,133.61l-9.65,4.76c-1.73.85-.21,3.44,1.51,2.59L147,136.2c1.73-.85.21-3.44-1.51-2.59Z" transform="translate(-22.35 -19.14)"/><path class="cls-4" d="M152.8,136.2l9.65,4.76c1.73.85,3.25-1.74,1.51-2.59l-9.65-4.76c-1.73-.85-3.25,1.74-1.51,2.59Z" transform="translate(-22.35 -19.14)"/><path class="cls-1" d="M52.06,30.74A27.54,27.54,0,0,1,55,30.59,28.08,28.08,0,0,1,79.12,73C74.24,67,65.24,63,55,63S35.66,67,30.78,73A28.06,28.06,0,0,1,32.7,41.53a27,27,0,0,1,4-4.2A27.63,27.63,0,0,1,44,32.8h0c.41-.17.83-.33,1.26-.49s1.08-.38,1.63-.54" transform="translate(-22.35 -19.14)"/><path class="cls-1" d="M36.1,26.72a3.66,3.66,0,0,1-2.29,2.54" transform="translate(-22.35 -19.14)"/><path class="cls-1" d="M36.1,26.72a3.66,3.66,0,0,1-2.29,2.54" transform="translate(-22.35 -19.14)"/><path class="cls-1" d="M32.7,41.53a9.87,9.87,0,0,1-1.3-19.21,1.89,1.89,0,0,1,.34-.09l.14,0a3.49,3.49,0,0,1,.65-.06,3.68,3.68,0,0,1,3.68,3.68,3.82,3.82,0,0,1-.11.9,3.66,3.66,0,0,1-2.29,2.54,5.84,5.84,0,0,0-.6,2.6,6,6,0,0,0,3.5,5.47A31.62,31.62,0,0,0,32.7,41.53Z" transform="translate(-22.35 -19.14)"/><path class="cls-1" d="M73.35,37.33a6,6,0,0,0,3.5-5.47,5.84,5.84,0,0,0-.6-2.6A3.66,3.66,0,0,1,74,26.72a3.82,3.82,0,0,1-.11-.9,3.68,3.68,0,0,1,3.68-3.68,3.49,3.49,0,0,1,.65.06l.14,0a1.89,1.89,0,0,1,.34.09,9.87,9.87,0,0,1-1.3,19.21A31.62,31.62,0,0,0,73.35,37.33Z" transform="translate(-22.35 -19.14)"/><path class="cls-1" d="M52.07,30.29c0,.15,0,.3,0,.45a27.31,27.31,0,0,0-5.15,1,6.91,6.91,0,0,1-.15-1.47c0-2.49,1.19-4.52,2.65-4.52S52.07,27.8,52.07,30.29Z" transform="translate(-22.35 -19.14)"/><path class="cls-1" d="M57.76,30.29c0,.15,0,.3,0,.45a27.31,27.31,0,0,1,5.15,1,6.91,6.91,0,0,0,.15-1.47c0-2.49-1.19-4.52-2.65-4.52S57.76,27.8,57.76,30.29Z" transform="translate(-22.35 -19.14)"/><path class="cls-1" d="M79.12,73a28.09,28.09,0,0,1-48.34,0C35.66,67,44.66,63,55,63S74.24,67,79.12,73Z" transform="translate(-22.35 -19.14)"/><path class="cls-3" d="M62.07,83.28a6.76,6.76,0,0,1-.19,1.64,7.1,7.1,0,0,1-1.37,2.86,6.45,6.45,0,0,1-1.37,1.34,7.26,7.26,0,0,1-8.76,0A6.45,6.45,0,0,1,49,87.78a7,7,0,0,1-1.39-3h0a7,7,0,0,1-.17-1.53,7.31,7.31,0,1,1,14.62,0Z" transform="translate(-22.35 -19.14)"/><path class="cls-3" d="M62.07,92.28a7.31,7.31,0,1,1-14.62,0A7.22,7.22,0,0,1,49,87.78a6.45,6.45,0,0,0,1.37,1.34.86.86,0,0,0,0,.16,4.39,4.39,0,1,0,8.78,0,.86.86,0,0,0,0-.16,6.45,6.45,0,0,0,1.37-1.34A7.22,7.22,0,0,1,62.07,92.28Z" transform="translate(-22.35 -19.14)"/><path class="cls-4" d="M51.77,49.76,41,49.82a1.5,1.5,0,0,0,0,3l10.76-.07a1.5,1.5,0,0,0,0-3Z" transform="translate(-22.35 -19.14)"/><path class="cls-4" d="M68.77,49.76,58,49.82a1.5,1.5,0,0,0,0,3l10.76-.07a1.5,1.5,0,0,0,0-3Z" transform="translate(-22.35 -19.14)"/><path class="cls-1" d="M147.06,29.74a27.54,27.54,0,0,1,2.89-.15A28.08,28.08,0,0,1,174.12,72c-4.88-6-13.88-10-24.17-10s-19.29,4-24.17,10a28.06,28.06,0,0,1,1.92-31.47,27,27,0,0,1,4-4.2A27.63,27.63,0,0,1,139,31.8h0c.41-.17.83-.33,1.26-.49s1.08-.38,1.63-.54" transform="translate(-22.35 -19.14)"/><path class="cls-1" d="M131.1,25.72a3.66,3.66,0,0,1-2.29,2.54" transform="translate(-22.35 -19.14)"/><path class="cls-1" d="M131.1,25.72a3.66,3.66,0,0,1-2.29,2.54" transform="translate(-22.35 -19.14)"/><path class="cls-1" d="M127.7,40.53a9.87,9.87,0,0,1-1.3-19.21,1.89,1.89,0,0,1,.34-.09l.14,0a3.49,3.49,0,0,1,.65-.06,3.68,3.68,0,0,1,3.68,3.68,3.82,3.82,0,0,1-.11.9,3.66,3.66,0,0,1-2.29,2.54,5.84,5.84,0,0,0-.6,2.6,6,6,0,0,0,3.5,5.47A31.62,31.62,0,0,0,127.7,40.53Z" transform="translate(-22.35 -19.14)"/><path class="cls-1" d="M168.35,36.33a6,6,0,0,0,3.5-5.47,5.84,5.84,0,0,0-.6-2.6A3.66,3.66,0,0,1,169,25.72a3.82,3.82,0,0,1-.11-.9,3.68,3.68,0,0,1,3.68-3.68,3.49,3.49,0,0,1,.65.06l.14,0a1.89,1.89,0,0,1,.34.09,9.87,9.87,0,0,1-1.3,19.21A31.62,31.62,0,0,0,168.35,36.33Z" transform="translate(-22.35 -19.14)"/><path class="cls-1" d="M147.07,29.29c0,.15,0,.3,0,.45a27.31,27.31,0,0,0-5.15,1,6.91,6.91,0,0,1-.15-1.47c0-2.49,1.19-4.52,2.65-4.52S147.07,26.8,147.07,29.29Z" transform="translate(-22.35 -19.14)"/><path class="cls-1" d="M152.76,29.29c0,.15,0,.3,0,.45a27.31,27.31,0,0,1,5.15,1,6.91,6.91,0,0,0,.15-1.47c0-2.49-1.19-4.52-2.65-4.52S152.76,26.8,152.76,29.29Z" transform="translate(-22.35 -19.14)"/><path class="cls-1" d="M174.12,72a28.09,28.09,0,0,1-48.34,0c4.88-6,13.88-10,24.17-10S169.24,66,174.12,72Z" transform="translate(-22.35 -19.14)"/><path class="cls-3" d="M157.07,82.28a6.76,6.76,0,0,1-.19,1.64,7.1,7.1,0,0,1-1.37,2.86,6.45,6.45,0,0,1-1.37,1.34,7.26,7.26,0,0,1-8.76,0A6.45,6.45,0,0,1,144,86.78a7,7,0,0,1-1.39-3h0a7,7,0,0,1-.17-1.53,7.31,7.31,0,1,1,14.62,0Z" transform="translate(-22.35 -19.14)"/><path class="cls-3" d="M157.07,91.28a7.31,7.31,0,1,1-14.62,0,7.22,7.22,0,0,1,1.56-4.5,6.45,6.45,0,0,0,1.37,1.34.86.86,0,0,0,0,.16,4.39,4.39,0,0,0,8.78,0,.86.86,0,0,0,0-.16,6.45,6.45,0,0,0,1.37-1.34A7.22,7.22,0,0,1,157.07,91.28Z" transform="translate(-22.35 -19.14)"/><path class="cls-4" d="M146.77,48.76,136,48.82a1.5,1.5,0,0,0,0,3l10.76-.07a1.5,1.5,0,0,0,0-3Z" transform="translate(-22.35 -19.14)"/><path class="cls-4" d="M163.77,48.76,153,48.82a1.5,1.5,0,0,0,0,3l10.76-.07a1.5,1.5,0,0,0,0-3Z" transform="translate(-22.35 -19.14)"/><ellipse class="cls-2" cx="121.1" cy="33.52" rx="1.69" ry="3.33"/><ellipse class="cls-2" cx="134.1" cy="33.52" rx="1.69" ry="3.33"/></svg>