<svg id="Layer_1" data-name="Layer 1" xmlns="http://www.w3.org/2000/svg" viewBox="0 0 286.5 289.07"><defs><style>.cls-1,.cls-6{fill:#fffcbd;}.cls-2,.cls-4{fill:#aa6500;}.cls-21,.cls-22,.cls-3{fill:none;}.cls-3,.cls-4,.cls-6{stroke:#000;}.cls-19,.cls-21,.cls-22,.cls-3,.cls-4,.cls-6{stroke-miterlimit:10;}.cls-5{fill:#edd600;}.cls-7,.cls-9{fill:#724100;}.cls-8{fill:#ffce00;}.cls-10,.cls-17,.cls-9{opacity:0.3;}.cls-10,.cls-14,.cls-17,.cls-19,.cls-9{isolation:isolate;}.cls-10{fill:#2b1700;}.cls-11{fill:#0092ff;}.cls-12,.cls-17{fill:#02619b;}.cls-13{fill:#68c4fc;}.cls-14{fill:#005884;}.cls-14,.cls-19{opacity:0.5;}.cls-15{fill:#caedff;}.cls-16{fill:#def4fc;}.cls-18,.cls-19{fill:#fff;}.cls-19,.cls-21,.cls-22{stroke:#2c0072;}.cls-19,.cls-22{stroke-width:5px;}.cls-20{fill:#2c0072;}.cls-21{stroke-width:4px;}</style></defs><title>search</title><g id="search"><path class="cls-1" d="M126.5,30.9A151.27,151.27,0,0,0,96.8,41.5c5.6-38.6,12.1-33.1,12.1-33.1C120.5,13.6,124.9,24.8,126.5,30.9Z" transform="translate(-5.3 -8.13)"/><path class="cls-2" d="M89.3,46.3A104.25,104.25,0,0,0,58.5,73.9C7.8,97.5,6,68.8,6,61.3,35.1,19.3,76.5,38.8,89.3,46.3Z" transform="translate(-5.3 -8.13)"/><path class="cls-3" d="M235.5,74.7c-.9-.4-1.8-.9-2.7-1.4a184.46,184.46,0,0,1-26.2-21s1.1-.8,3.2-2A104,104,0,0,1,235.5,74.7Z" transform="translate(-5.3 -8.13)"/><path d="M89.3,46.3A104.25,104.25,0,0,0,58.5,73.9C17.1,93.2,8.3,77.5,6.5,67c3.8,9.3,15.5,18,50.6,1.8,6.8-9.1,20.5-15.1,32.2-22.5C91.2,47.2,87.9,45.5,89.3,46.3Z" transform="translate(-5.3 -8.13)"/><path class="cls-4" d="M235.5,74.7a107.6,107.6,0,0,0-25.7-24.4" transform="translate(-5.3 -8.13)"/><path class="cls-3" d="M235.5,74.7c-.9-.4-1.8-.9-2.7-1.4a184.46,184.46,0,0,1-26.2-21s1.1-.8,3.2-2A104,104,0,0,1,235.5,74.7Z" transform="translate(-5.3 -8.13)"/><path class="cls-5" d="M127.7,30.9A151.27,151.27,0,0,0,98,41.5c2.6-18,5.4-26.4,7.7-30.3.1,0,.1.1.2.1-.3,2.8-1.3,10.2-3.8,27.4C110.7,34.5,116.5,33.7,127.7,30.9Z" transform="translate(-5.3 -8.13)"/><path class="cls-6" d="M105.7,11.3" transform="translate(-5.3 -8.13)"/><path class="cls-7" d="M86.9,46.3a100.59,100.59,0,0,0-30.4,25C15.7,88.6,7.1,74.5,5.3,65c3.8,8.4,15.3,16.2,49.9,1.6,6.7-8.2,20.2-13.7,31.7-20.3C88.8,47.1,85.6,45.6,86.9,46.3Z" transform="translate(-5.3 -8.13)"/><path class="cls-1" d="M173.1,34.5a151.27,151.27,0,0,1,29.7,10.6C197.2,6.5,190.7,12,190.7,12,179.2,17.2,174.7,28.4,173.1,34.5Z" transform="translate(-5.3 -8.13)"/><path class="cls-5" d="M172,34.5a151.27,151.27,0,0,1,29.7,10.6c-2.6-18-5.4-26.4-7.7-30.3-.1,0-.1.1-.2.1.3,2.8,1.3,10.2,3.8,27.4C189,38.1,183.2,37.3,172,34.5Z" transform="translate(-5.3 -8.13)"/><path class="cls-6" d="M194,14.9" transform="translate(-5.3 -8.13)"/><path class="cls-2" d="M207.8,49.9a103.14,103.14,0,0,1,30.8,27.7c50.7,23.6,52.5-5.1,52.5-12.6C261.9,22.9,220.5,42.4,207.8,49.9Z" transform="translate(-5.3 -8.13)"/><path d="M207.8,49.9a103.14,103.14,0,0,1,30.8,27.7c41.4,19.3,50.2,3.6,52-6.9-3.8,9.3-15.5,18-50.6,1.8-6.8-9.2-20.6-15.2-32.2-22.6C205.9,50.8,209.1,49.1,207.8,49.9Z" transform="translate(-5.3 -8.13)"/><path class="cls-7" d="M210.1,49.9a100.59,100.59,0,0,1,30.4,25c40.8,17.4,49.5,3.2,51.3-6.2-3.8,8.4-15.3,16.2-49.9,1.6-6.8-8.3-20.3-13.8-31.8-20.4C208.3,50.7,211.4,49.2,210.1,49.9Z" transform="translate(-5.3 -8.13)"/><path class="cls-8" d="M258.5,153.7c0,52.8-49.4,95.6-110.4,95.6-57.3,0-104.4-37.8-109.9-86.1v-.3c-.8-6-17.7-116,106.2-135.3h3.7c101.1,15.7,110.7,91.7,110.3,122.5v.1C258.5,151.4,258.5,152.5,258.5,153.7Z" transform="translate(-5.3 -8.13)"/><path class="cls-9" d="M246.5,197c-18.2,31-55.5,52.2-98.4,52.2-57.3,0-104.4-37.8-109.9-86.1v-.3c-.6-4.1-8.4-55.3,24.4-94.2-21.8,36.4-15.5,77.4-15,81v.3c5.5,48.4,52.6,86.1,109.9,86.1C194,236.1,226.4,220.7,246.5,197Z" transform="translate(-5.3 -8.13)"/><path class="cls-9" d="M49.9,198.2c18.2,31,55.5,52.2,98.4,52.2,57.3,0,104.4-37.8,109.9-86.1V164c.6-4.1,8.4-55.3-24.4-94.2,21.8,36.4,15.5,77.4,15,81v.3c-5.5,48.4-52.6,86.1-109.9,86.1C102.4,237.3,70,221.9,49.9,198.2Z" transform="translate(-5.3 -8.13)"/><path class="cls-3" d="M167,247.9a127.94,127.94,0,0,1-42.5-.8c8.8.7,18,1.1,27.5,1.1C157,248.2,162.1,248.1,167,247.9Z" transform="translate(-5.3 -8.13)"/><path class="cls-2" d="M247.6,195.1c-15.2,27.4-45,47.5-80.6,52.8-4.9.2-10,.3-15.1.3-9.5,0-18.7-.4-27.5-1.1-31.6-6-58.1-23.6-73.2-47.5,13.7-19.9,50.4-45,96.5-45C190.4,154.6,229.5,176.1,247.6,195.1Z" transform="translate(-5.3 -8.13)"/><path class="cls-10" d="M216.4,206.8a19,19,0,0,1-.9,13.1,45.74,45.74,0,0,1-8.6,12.5,85.87,85.87,0,0,1-7.6,5.9,82.85,82.85,0,0,1-12.4,6.8h-.1c-28.3,12.3-65,9.1-97.1-10.4h0c-3.3-2-6.5-4.1-9.6-6.4a131.39,131.39,0,0,1-28.7-29l6-7.4h0a134.84,134.84,0,0,0,22.3,20.9c1,.7,2,1.5,3,2.2,20,13.9,42.1,21.1,63.1,21.9,2.7.1,5.3.1,8,0,23-.9,44.1-9.6,58.8-25.9h0l.1-.1A53.62,53.62,0,0,0,216.4,206.8Z" transform="translate(-5.3 -8.13)"/><path class="cls-10" d="M82.7,204.4a19,19,0,0,0,.9,13.1A45.74,45.74,0,0,0,92.2,230a85.87,85.87,0,0,0,7.6,5.9,82.85,82.85,0,0,0,12.4,6.8h.1c28.3,12.3,65,9.1,97.1-10.4h0c3.3-2,6.5-4.1,9.6-6.4a131.39,131.39,0,0,0,28.7-29l-6-7.4h0a134.84,134.84,0,0,1-22.3,20.9c-1,.7-2,1.5-3,2.2-20,13.9-42.1,21.1-63.1,21.9-2.7.1-5.3.1-8,0-23-.9-44.1-9.6-58.8-25.9h0l-.1-.1A37.81,37.81,0,0,1,82.7,204.4Z" transform="translate(-5.3 -8.13)"/><path class="cls-11" d="M82.8,215c-2.2-15.3,14.8-33,35.8-27.2,7.8,2.1,15,7.3,20.6,13.1,0,0,10.2,9,21.4,0,5.5-5.8,12.8-10.9,20.6-13.1,17.3-4.7,31.9,6.4,35.3,19a19,19,0,0,1-.9,13.1,45.74,45.74,0,0,1-8.6,12.5,48.81,48.81,0,0,1-5.3,4.8,46,46,0,0,1-14.8,7.9h-.1a37.35,37.35,0,0,1-11.5,1.8,28.1,28.1,0,0,1-2.9-.1,25.36,25.36,0,0,1-18.5-10,21.91,21.91,0,0,1-4-9.1,21.36,21.36,0,0,1-4,9.1c-4.6,6.1-12.3,10.1-21.4,10.1a41.51,41.51,0,0,1-20.2-5.6,49,49,0,0,1-20.1-21.5,14.87,14.87,0,0,1-1.4-4.8" transform="translate(-5.3 -8.13)"/><path class="cls-12" d="M215.5,220a45.74,45.74,0,0,1-8.6,12.5,48.81,48.81,0,0,1-5.3,4.8,46,46,0,0,1-14.8,7.9h-.1a37.35,37.35,0,0,1-11.5,1.8,28.1,28.1,0,0,1-2.9-.1,25.36,25.36,0,0,1-18.5-10,21.91,21.91,0,0,1-4-9.1,21.36,21.36,0,0,1-4,9.1c-4.6,6.1-12.3,10.1-21.4,10.1a41.51,41.51,0,0,1-20.2-5.6,49,49,0,0,1-20.1-21.5,22.13,22.13,0,0,1-1.5-5,17.2,17.2,0,0,1-.2-3.2,11.66,11.66,0,0,0,1,2.6,48.89,48.89,0,0,0,20.3,21.5,41.59,41.59,0,0,0,20.3,5.6c9.2,0,17-4,21.6-10.1a21.91,21.91,0,0,0,4-9.1,21.36,21.36,0,0,0,4,9.1c4.1,5.5,10.7,9.2,18.7,10a27.15,27.15,0,0,0,2.9.1,38,38,0,0,0,11.6-1.8h.1a47.5,47.5,0,0,0,14.9-7.9,61.68,61.68,0,0,0,5.4-4.8,47.7,47.7,0,0,0,8.7-12.5,12.13,12.13,0,0,0,1.1-3.2A16.62,16.62,0,0,1,215.5,220Z" transform="translate(-5.3 -8.13)"/><path class="cls-3" d="M160.6,200.9" transform="translate(-5.3 -8.13)"/><path class="cls-13" d="M149.4,222.7c0,12.9-11.1,23.4-24.8,23.4s-29.1-16.7-29.1-29.7,7.5-20.2,21.2-20.2S149.4,209.7,149.4,222.7Z" transform="translate(-5.3 -8.13)"/><path class="cls-14" d="M149.4,222.7c0,12.9-11.1,23.4-24.8,23.4s-29.1-16.7-29.1-29.7a26.33,26.33,0,0,1,.3-4.1c.1,12.9,15.4,29.5,29.1,29.5,12.4,0,22.7-8.6,24.5-19.8Z" transform="translate(-5.3 -8.13)"/><path class="cls-13" d="M150.7,223.9c0,12.9,11.1,23.4,24.8,23.4s29.1-16.7,29.1-29.7-7.5-20.2-21.2-20.2S150.7,210.9,150.7,223.9Z" transform="translate(-5.3 -8.13)"/><path class="cls-14" d="M150.7,223.9c0,12.9,11.1,23.4,24.8,23.4s29.1-16.7,29.1-29.7a26.33,26.33,0,0,0-.3-4.1c-.1,12.9-15.4,29.5-29.1,29.5-12.4,0-22.7-8.6-24.5-19.8Z" transform="translate(-5.3 -8.13)"/><path class="cls-15" d="M150.4,241.6c-18,0-32.5,12.5-32.5,27.8s14.6,27.8,32.5,27.8S183,284.7,183,269.4,168.4,241.6,150.4,241.6Zm.3,39.4c-8.7,0-15.7-8.1-15.7-18s7-18,15.7-18,15.7,8.1,15.7,18S159.4,281,150.7,281Z" transform="translate(-5.3 -8.13)"/><path class="cls-14" d="M182.9,269.4c0,15.4-14.6,27.8-32.6,27.8s-32.5-12.5-32.5-27.8c0-1,.1-2,.2-3,1.7,14,15.6,24.8,32.4,24.8s30.6-10.9,32.4-24.8C182.9,267.4,182.9,268.4,182.9,269.4Z" transform="translate(-5.3 -8.13)"/><ellipse class="cls-16" cx="145.7" cy="231.47" rx="23.2" ry="19.6"/><path class="cls-17" d="M174.1,241.7c-1.2,9.9-11.1,17.5-23.1,17.5-12.8,0-23.2-8.8-23.2-19.6a16,16,0,0,1,.9-5.3,14.77,14.77,0,0,0-.1,2.1c0,10.8,10.4,19.6,23.2,19.6C162.4,256.1,171.4,250,174.1,241.7Z" transform="translate(-5.3 -8.13)"/><ellipse cx="117.5" cy="109.97" rx="4.9" ry="15.7"/><ellipse class="cls-18" cx="117.7" cy="100.97" rx="2.6" ry="2.7"/><circle class="cls-19" cx="169.7" cy="108.37" r="25.1"/><path class="cls-20" d="M91.7,111.6c-3.1,0-6.2-.1-9.3,0-5.2.1-7.9,4.3-8.2,9.2-.2,3.2,4.8,3.2,5,0,.2-4.2,2.6-4.2,5.8-4.2h6.7c3.3,0,3.3-5,0-5Z" transform="translate(-5.3 -8.13)"/><path class="cls-21" d="M77.3,133.8" transform="translate(-5.3 -8.13)"/><path class="cls-21" d="M70.6,123.2" transform="translate(-5.3 -8.13)"/><circle class="cls-22" cx="169.5" cy="108.37" r="25.1"/><path class="cls-20" d="M201.2,115.3h6.7c3.2,0,5.6,0,5.8,4.2.2,3.2,5.2,3.2,5,0-.3-4.9-3-9-8.2-9.2-3.1-.1-6.2,0-9.3,0s-3.2,5,0,5Z" transform="translate(-5.3 -8.13)"/><circle class="cls-22" cx="113.9" cy="108.37" r="25.1"/><ellipse cx="165.9" cy="109.97" rx="4.9" ry="15.7"/><ellipse class="cls-18" cx="165.7" cy="100.97" rx="2.6" ry="2.7"/><circle class="cls-19" cx="114.1" cy="108.37" r="25.1"/><ellipse cx="117.5" cy="109.97" rx="4.9" ry="15.7"/><ellipse class="cls-18" cx="117.7" cy="100.97" rx="2.6" ry="2.7"/></g></svg>