<svg id="Layer_1" data-name="Layer 1" xmlns="http://www.w3.org/2000/svg" viewBox="0 0 244.1 241.03"><defs><style>.cls-1,.cls-6{fill:#fffcbd;}.cls-2,.cls-4{fill:#aa6500;}.cls-18,.cls-19,.cls-20,.cls-3{fill:none;}.cls-18,.cls-19,.cls-20,.cls-3,.cls-4,.cls-6{stroke:#000;stroke-miterlimit:10;}.cls-5{fill:#edd600;}.cls-7,.cls-9{fill:#724100;}.cls-8{fill:#ffce00;}.cls-10,.cls-17,.cls-9{opacity:0.3;}.cls-10,.cls-14,.cls-17,.cls-9{isolation:isolate;}.cls-10{fill:#2b1700;}.cls-11{fill:#0092ff;}.cls-12,.cls-17{fill:#02619b;}.cls-13{fill:#68c4fc;}.cls-14{fill:#005884;opacity:0.5;}.cls-15{fill:#caedff;}.cls-16{fill:#def4fc;}.cls-18{stroke-width:2px;}.cls-19{stroke-width:3px;}.cls-20{stroke-width:5px;}</style></defs><title>signup2</title><g id="ears_horns" data-name="ears horns"><path class="cls-1" d="M128.6,56.3a124.8,124.8,0,0,0-25.3,8.9c4.8-32.2,10.3-27.6,10.3-27.6C123.4,41.8,127.2,51.1,128.6,56.3Z" transform="translate(-25.3 -37.37)"/><path class="cls-2" d="M96.8,69.1A87.81,87.81,0,0,0,70.6,92.2c-43.2,19.7-44.7-4.3-44.7-10.5C50.7,46.6,85.9,62.8,96.8,69.1Z" transform="translate(-25.3 -37.37)"/><path class="cls-3" d="M221.4,92.8c-.8-.4-1.5-.8-2.3-1.2a155.92,155.92,0,0,1-22.3-17.5s1-.7,2.7-1.7A90.06,90.06,0,0,1,221.4,92.8Z" transform="translate(-25.3 -37.37)"/><path d="M96.8,69.1A87.81,87.81,0,0,0,70.6,92.2c-35.3,16.1-42.8,3-44.3-5.7,3.3,7.8,13.2,15,43.1,1.5,5.8-7.7,17.5-12.8,27.4-18.9C98.4,69.9,95.7,68.4,96.8,69.1Z" transform="translate(-25.3 -37.37)"/><path class="cls-4" d="M221.4,92.8a87.87,87.87,0,0,0-21.9-20.3" transform="translate(-25.3 -37.37)"/><path class="cls-3" d="M221.4,92.8c-.8-.4-1.5-.8-2.3-1.2a155.92,155.92,0,0,1-22.3-17.5s1-.7,2.7-1.7A90.06,90.06,0,0,1,221.4,92.8Z" transform="translate(-25.3 -37.37)"/><path class="cls-5" d="M129.6,56.3a124.8,124.8,0,0,0-25.3,8.9c2.2-15,4.6-22,6.5-25.2.1,0,.1,0,.2.1-.3,2.4-1.1,8.5-3.3,22.9C115.1,59.3,120,58.6,129.6,56.3Z" transform="translate(-25.3 -37.37)"/><path class="cls-6" d="M110.8,39.9" transform="translate(-25.3 -37.37)"/><path class="cls-7" d="M94.8,69.1A81.19,81.19,0,0,0,69,89.9c-34.8,14.5-42.2,2.7-43.7-5.2,3.2,7,13,13.5,42.5,1.4,5.7-6.9,17.2-11.5,27-17C96.4,69.8,93.7,68.5,94.8,69.1Z" transform="translate(-25.3 -37.37)"/><path class="cls-1" d="M168.3,59.3a124.8,124.8,0,0,1,25.3,8.9c-4.8-32.2-10.3-27.6-10.3-27.6C173.4,44.8,169.6,54.1,168.3,59.3Z" transform="translate(-25.3 -37.37)"/><path class="cls-5" d="M167.3,59.3a124.8,124.8,0,0,1,25.3,8.9c-2.2-15-4.6-22-6.5-25.2-.1,0-.1,0-.2.1.3,2.4,1.1,8.5,3.3,22.9C181.8,62.3,176.8,61.6,167.3,59.3Z" transform="translate(-25.3 -37.37)"/><path class="cls-6" d="M186,42.9" transform="translate(-25.3 -37.37)"/><path class="cls-2" d="M197.8,72.1A86.59,86.59,0,0,1,224,95.2c43.2,19.7,44.7-4.3,44.7-10.5C243.9,49.6,208.7,65.8,197.8,72.1Z" transform="translate(-25.3 -37.37)"/><path d="M197.8,72.1A86.59,86.59,0,0,1,224,95.2c35.3,16.1,42.8,3,44.3-5.7-3.3,7.8-13.2,15-43.1,1.5-5.8-7.7-17.5-12.8-27.4-18.9C196.2,72.9,198.9,71.4,197.8,72.1Z" transform="translate(-25.3 -37.37)"/><path class="cls-7" d="M199.8,72.1a85.7,85.7,0,0,1,25.9,20.8c34.8,14.5,42.2,2.7,43.7-5.2-3.2,7-13,13.5-42.5,1.4-5.8-6.9-17.3-11.5-27.1-17C198.2,72.8,200.9,71.5,199.8,72.1Z" transform="translate(-25.3 -37.37)"/></g><g id="head"><path class="cls-8" d="M241,158.7c0,44-42.1,79.7-94,79.7-48.8,0-88.9-31.5-93.6-71.9h0v-.2c-.7-5-15.1-96.8,90.5-112.9h3.2c86.1,13.1,94.3,76.5,94,102.2v.1C241,156.8,241,157.7,241,158.7Z" transform="translate(-25.3 -37.37)"/><path class="cls-9" d="M230.8,194.8c-15.5,25.9-47.2,43.6-83.8,43.6-48.8,0-88.9-31.5-93.6-71.9h0v-.2c-.5-3.4-7.2-46.1,20.8-78.6C55.6,118.1,61,152.2,61.4,155.3v.2h0c4.7,40.3,44.8,71.9,93.6,71.9C186.1,227.4,213.7,214.6,230.8,194.8Z" transform="translate(-25.3 -37.37)"/><path class="cls-9" d="M63.3,195.8c15.5,25.9,47.3,43.6,83.8,43.6,48.8,0,88.9-31.5,93.6-71.9h0v-.2c.5-3.4,7.2-46.1-20.8-78.6,18.6,30.4,13.2,64.5,12.8,67.6v.2h0c-4.7,40.3-44.8,71.9-93.6,71.9C108,228.4,80.4,215.6,63.3,195.8Z" transform="translate(-25.3 -37.37)"/></g><g id="nose"><path class="cls-3" d="M163.1,237.3a106.08,106.08,0,0,1-16.1,1.2,110.5,110.5,0,0,1-20.1-1.8c7.5.6,15.3,1,23.4,1C154.6,237.5,158.9,237.5,163.1,237.3Z" transform="translate(-25.3 -37.37)"/><path class="cls-2" d="M231.8,193.2c-12.9,22.8-38.3,39.6-68.7,44-4.2.2-8.5.3-12.8.3-8.1,0-15.9-.3-23.4-1-26.9-5-49.5-19.7-62.4-39.6,11.6-16.6,42.9-37.6,82.2-37.6C183,159.4,216.3,177.4,231.8,193.2Z" transform="translate(-25.3 -37.37)"/><path class="cls-10" d="M205.2,203a15.48,15.48,0,0,1-.8,11,39.13,39.13,0,0,1-7.3,10.4,61.43,61.43,0,0,1-6.5,4.9A67.39,67.39,0,0,1,180,235h-.1c-24.1,10.3-55.3,7.6-82.7-8.7h0a82.65,82.65,0,0,1-8.2-5.4,107.82,107.82,0,0,1-24.4-24.2l5.1-6.2h0a109.51,109.51,0,0,0,19,17.4c.9.6,1.7,1.2,2.6,1.8,17,11.6,35.9,17.6,53.8,18.3,2.3.1,4.5.1,6.8,0,19.6-.7,37.5-8,50.1-21.6h0l.1-.1A40.85,40.85,0,0,0,205.2,203Z" transform="translate(-25.3 -37.37)"/><path class="cls-10" d="M91.2,201a15.48,15.48,0,0,0,.8,11,39.13,39.13,0,0,0,7.3,10.4,61.43,61.43,0,0,0,6.5,4.9,67.39,67.39,0,0,0,10.6,5.7h.1c24.1,10.3,55.3,7.6,82.7-8.7h0a82.65,82.65,0,0,0,8.2-5.4,107.82,107.82,0,0,0,24.4-24.2l-5.1-6.2h0a109.51,109.51,0,0,1-19,17.4c-.9.6-1.7,1.2-2.6,1.8-17,11.6-35.9,17.6-53.8,18.3-2.3.1-4.5.1-6.8,0-19.6-.7-37.5-8-50.1-21.6h0l-.1-.1A27.64,27.64,0,0,1,91.2,201Z" transform="translate(-25.3 -37.37)"/></g><g id="pacifier"><path class="cls-11" d="M91.3,209.9c-1.9-12.7,12.6-27.5,30.5-22.7,6.6,1.8,12.8,6.1,17.5,10.9,0,0,8.7,7.5,18.3,0,4.7-4.9,10.9-9.1,17.5-10.9,14.8-4,27.2,5.4,30.1,15.9a15.48,15.48,0,0,1-.8,11,37.34,37.34,0,0,1-7.4,10.4,42.85,42.85,0,0,1-4.5,4,40,40,0,0,1-12.6,6.6h-.1a32.83,32.83,0,0,1-9.8,1.5,20.9,20.9,0,0,1-2.5-.1,22,22,0,0,1-15.8-8.3,17.49,17.49,0,0,1-3.4-7.6,17.49,17.49,0,0,1-3.4,7.6c-3.9,5.1-10.4,8.4-18.2,8.4a36.1,36.1,0,0,1-17.2-4.7A41,41,0,0,1,92.4,214a19.09,19.09,0,0,1-1.1-4.1" transform="translate(-25.3 -37.37)"/><path class="cls-12" d="M204.4,214a39.13,39.13,0,0,1-7.3,10.4,42.85,42.85,0,0,1-4.5,4A40,40,0,0,1,180,235h-.1a32.83,32.83,0,0,1-9.8,1.5,20.9,20.9,0,0,1-2.5-.1,22,22,0,0,1-15.8-8.3,17.49,17.49,0,0,1-3.4-7.6,17.49,17.49,0,0,1-3.4,7.6c-3.9,5.1-10.5,8.4-18.2,8.4a36.1,36.1,0,0,1-17.2-4.7,41,41,0,0,1-17.1-17.9,14.84,14.84,0,0,1-1.2-4.1,24.62,24.62,0,0,1-.2-2.6,14.27,14.27,0,0,0,.8,2.2,40.87,40.87,0,0,0,17.3,17.9,36.48,36.48,0,0,0,17.3,4.7c7.8,0,14.5-3.3,18.4-8.4a17.49,17.49,0,0,0,3.4-7.6,17.49,17.49,0,0,0,3.4,7.6,22.05,22.05,0,0,0,15.9,8.3,20.08,20.08,0,0,0,2.5.1,33,33,0,0,0,9.9-1.5h.1a40.49,40.49,0,0,0,12.7-6.6,57.24,57.24,0,0,0,4.6-4,38.85,38.85,0,0,0,7.4-10.4c.4-.9.7-1.8,1-2.7A15.2,15.2,0,0,1,204.4,214Z" transform="translate(-25.3 -37.37)"/><path class="cls-3" d="M157.6,198.1" transform="translate(-25.3 -37.37)"/></g><g id="pacifier_color" data-name="pacifier color"><path class="cls-13" d="M148.1,216.2c0,10.8-9.5,19.6-21.2,19.6s-24.8-14-24.8-24.8,6.4-16.8,18.1-16.8S148.1,205.4,148.1,216.2Z" transform="translate(-25.3 -37.37)"/><path class="cls-14" d="M148.1,216.2c0,10.8-9.5,19.6-21.2,19.6s-24.8-14-24.8-24.8c0-1.2.1-2.3.2-3.4.1,10.8,13.1,24.6,24.8,24.6,10.6,0,19.3-7.1,20.9-16.5A1.09,1.09,0,0,1,148.1,216.2Z" transform="translate(-25.3 -37.37)"/><path class="cls-13" d="M149.1,217.2c0,10.8,9.5,19.6,21.2,19.6s24.8-14,24.8-24.8-6.4-16.8-18.1-16.8S149.1,206.4,149.1,217.2Z" transform="translate(-25.3 -37.37)"/><path class="cls-14" d="M149.2,217.2c0,10.8,9.5,19.6,21.2,19.6s24.8-14,24.8-24.8c0-1.2-.1-2.3-.2-3.4-.1,10.8-13.1,24.6-24.8,24.6-10.6,0-19.3-7.1-20.9-16.5A1.09,1.09,0,0,0,149.2,217.2Z" transform="translate(-25.3 -37.37)"/></g><g id="pacifier_top" data-name="pacifier top"><path class="cls-15" d="M148.9,232c-15.3,0-27.7,10.4-27.7,23.2s12.4,23.2,27.7,23.2,27.7-10.4,27.7-23.2S164.2,232,148.9,232Zm.2,32.9c-7.4,0-13.4-6.7-13.4-15.1s6-15,13.4-15,13.4,6.7,13.4,15S156.5,264.9,149.1,264.9Z" transform="translate(-25.3 -37.37)"/><path class="cls-14" d="M176.6,255.2c0,12.8-12.4,23.2-27.7,23.2s-27.7-10.4-27.7-23.2a21.05,21.05,0,0,1,.2-2.5c1.5,11.7,13.3,20.7,27.6,20.7s26.1-9.1,27.6-20.7C176.6,253.6,176.6,254.4,176.6,255.2Z" transform="translate(-25.3 -37.37)"/><ellipse class="cls-16" cx="124.1" cy="193.03" rx="19.8" ry="16.4"/><path class="cls-17" d="M169.1,232.1c-1,8.2-9.5,14.6-19.7,14.6-10.9,0-19.8-7.3-19.8-16.4a13.08,13.08,0,0,1,.7-4.4,10.87,10.87,0,0,0-.1,1.8c0,9,8.9,16.4,19.8,16.4C159.1,244.1,166.8,239,169.1,232.1Z" transform="translate(-25.3 -37.37)"/></g><ellipse cx="100.1" cy="87.86" rx="4.2" ry="6.74"/><ellipse cx="140.2" cy="87.86" rx="4.2" ry="6.74"/><path class="cls-18" d="M139.41,139.95c0-5-5.92-9-13.23-9s-13.23,4-13.23,9" transform="translate(-25.3 -37.37)"/><path class="cls-18" d="M178.73,139.95c0-5-5.92-9-13.23-9s-13.23,4-13.23,9" transform="translate(-25.3 -37.37)"/><path class="cls-19" d="M137.41,127.85c0-5.46-5.51-9.89-12.31-9.89s-12.31,4.43-12.31,9.89" transform="translate(-25.3 -37.37)"/><path class="cls-19" d="M177.71,128.08c0-5.46-5.51-9.89-12.31-9.89s-12.31,4.43-12.31,9.89" transform="translate(-25.3 -37.37)"/><path class="cls-20" d="M138.57,146.54" transform="translate(-25.3 -37.37)"/><path class="cls-20" d="M126.26,156.44" transform="translate(-25.3 -37.37)"/></svg>